<svg id="Layer_1" data-name="Layer 1" xmlns="http://www.w3.org/2000/svg" xmlns:xlink="http://www.w3.org/1999/xlink" viewBox="0 0 263 533"><defs><style>.cls-1{opacity:0.26;}.cls-2{fill:#666;}.cls-3{fill:#ecebea;}.cls-4{fill:#f7f7f7;}.cls-5{fill:url(#linear-gradient);}.cls-6{fill:none;}.cls-7{fill:#c2b7aa;}.cls-8{fill:#c7bbad;}.cls-9{fill:#cbbeb0;}.cls-10{fill:#d0c2b3;}.cls-11{fill:#d4c6b6;}.cls-12{fill:#d9c9b9;}.cls-13{fill:#ddcdbb;}.cls-14{fill:#e2d0be;}.cls-15{fill:#e6d4c1;}.cls-16{fill:#ebd8c4;}.cls-17{fill:#efdbc7;}.cls-18{fill:#f4dfca;}.cls-19{fill:#56564b;}.cls-20{fill:#fff;}.cls-21{fill:url(#linear-gradient-2);}.cls-22{fill:#f1f1f1;}.cls-23{fill:#2b2726;}.cls-24{fill:url(#radial-gradient);}.cls-25{fill:#f5f4f4;}.cls-26{fill:#eaeaea;}.cls-27{fill:#e0dfdf;}.cls-28{fill:#d5d4d5;}.cls-29{fill:#cbcaca;}.cls-30{fill:#c0bfbf;}.cls-31{fill:#b6b4b5;}.cls-32{fill:#abaaaa;}.cls-33{fill:#a19f9f;}.cls-34{fill:#969495;}.cls-35{fill:#8c8a8a;}.cls-36{fill:#817f80;}.cls-37{fill:#777475;}.cls-38{fill:#6c6a6a;}.cls-39{fill:#625f60;}.cls-40{fill:#575455;}.cls-41{fill:#4d4a4a;}.cls-42{fill:#423f40;}.cls-43{fill:#383435;}.cls-44{fill:#2d2a2b;}.cls-45{fill:url(#linear-gradient-3);}.cls-46{fill:#353536;}.cls-47{fill:#666769;}.cls-48{fill:url(#linear-gradient-4);}.cls-49{fill:url(#linear-gradient-5);}.cls-50{fill:#b6a08e;}.cls-51{fill:url(#linear-gradient-6);}.cls-52{fill:url(#linear-gradient-7);}.cls-53{fill:url(#linear-gradient-8);}.cls-54{fill:url(#linear-gradient-9);}.cls-55{fill:url(#linear-gradient-10);}.cls-56{fill:url(#linear-gradient-11);}.cls-57{fill:url(#linear-gradient-12);}.cls-58{fill:#3e3e3e;}</style><linearGradient id="linear-gradient" x1="131.29" y1="23.54" x2="131.29" y2="521.86" gradientTransform="matrix(1, 0, 0, -1, 0, 540)" gradientUnits="userSpaceOnUse"><stop offset="0" stop-color="#f7f7f7"/><stop offset="0.05" stop-color="#fefefe"/><stop offset="0.21" stop-color="#fff"/><stop offset="0.41" stop-color="#f7f7f7"/><stop offset="0.59" stop-color="#f7f7f7"/><stop offset="0.84" stop-color="#fff"/><stop offset="0.95" stop-color="#fdfdfd"/><stop offset="1" stop-color="#f7f7f7"/></linearGradient><linearGradient id="linear-gradient-2" x1="123.2" y1="30.64" x2="138.92" y2="65.95" gradientTransform="matrix(1, 0, 0, -1, 0, 540)" gradientUnits="userSpaceOnUse"><stop offset="0" stop-color="#fdefdf"/><stop offset="0.4" stop-color="#432c17"/><stop offset="0.76" stop-color="#775c43"/><stop offset="1" stop-color="#feefdf"/></linearGradient><radialGradient id="radial-gradient" cx="93.43" cy="495.45" r="7.65" gradientTransform="matrix(1, 0, 0, -1, 0, 540)" gradientUnits="userSpaceOnUse"><stop offset="0" stop-color="#696969"/><stop offset="1" stop-color="#232323"/></radialGradient><linearGradient id="linear-gradient-3" x1="131.63" y1="498.56" x2="131.63" y2="501.87" gradientTransform="matrix(1, 0, 0, -1, 0, 540)" gradientUnits="userSpaceOnUse"><stop offset="0" stop-color="#080808"/><stop offset="0.26" stop-color="#3a3a3a"/><stop offset="0.76" stop-color="#3a3a3a"/><stop offset="1" stop-color="#080808"/></linearGradient><linearGradient id="linear-gradient-4" x1="257.6" y1="422.86" x2="257.6" y2="384.08" gradientTransform="matrix(1, 0, 0, -1, 0, 540)" gradientUnits="userSpaceOnUse"><stop offset="0" stop-color="#64656b"/><stop offset="0.07" stop-color="#b2b4b9"/><stop offset="0.93" stop-color="#b8babf"/><stop offset="1" stop-color="#67686e"/></linearGradient><linearGradient id="linear-gradient-5" x1="257.6" y1="422.86" x2="257.6" y2="384.08" gradientTransform="matrix(1, 0, 0, -1, 0, 540)" gradientUnits="userSpaceOnUse"><stop offset="0" stop-color="#6f5944"/><stop offset="0.05" stop-color="#f5e7d8"/><stop offset="0.92" stop-color="#f5e7d8"/><stop offset="1" stop-color="#725e4a"/></linearGradient><linearGradient id="linear-gradient-6" x1="4.92" y1="422.47" x2="4.92" y2="383.95" xlink:href="#linear-gradient-5"/><linearGradient id="linear-gradient-7" x1="4.92" y1="466.97" x2="4.92" y2="446.29" xlink:href="#linear-gradient-5"/><linearGradient id="linear-gradient-8" x1="4.92" y1="375" x2="4.92" y2="336.32" xlink:href="#linear-gradient-5"/><linearGradient id="linear-gradient-9" x1="257.06" y1="489.38" x2="253.35" y2="489.38" gradientTransform="matrix(1, 0, 0, -1, 0, 540)" gradientUnits="userSpaceOnUse"><stop offset="0" stop-color="#c6c6c5"/><stop offset="0.48" stop-color="#f5f4f3"/><stop offset="0.71" stop-color="#f1f1f0"/><stop offset="1" stop-color="#dadad9"/></linearGradient><linearGradient id="linear-gradient-10" x1="5.4" y1="489.38" x2="9.14" y2="489.38" xlink:href="#linear-gradient-9"/><linearGradient id="linear-gradient-11" x1="257.12" y1="56.74" x2="253.3" y2="56.74" xlink:href="#linear-gradient-9"/><linearGradient id="linear-gradient-12" x1="5.4" y1="56.74" x2="9.22" y2="56.74" xlink:href="#linear-gradient-9"/></defs><title>Artboard 1</title><g id="iPhones"><g class="cls-1"><rect class="cls-2" x="5.42" y="7.67" width="251.71" height="518.87" rx="37.83" ry="37.83"/></g><path class="cls-3" d="M43.25,11.46H219.3a34,34,0,0,1,34,34V488.71a34,34,0,0,1-34,34H43.25a34,34,0,0,1-34-34h0V45.5a34,34,0,0,1,34-34Z"/><rect class="cls-4" x="11.09" y="13.35" width="240.36" height="507.52" rx="32.78" ry="32.78"/><path class="cls-5" d="M14.85,484.21V47.78A32.37,32.37,0,0,1,39.65,16.2a32.63,32.63,0,0,0-28,32.13V485.89A32.64,32.64,0,0,0,43,518.31C27.21,516.23,14.85,500.77,14.85,484.21Zm208-468a32.36,32.36,0,0,1,24.8,31.58V484.21c0,15.87-11.36,30.9-26.21,34a32.64,32.64,0,0,0,29.44-32.3V48.33A32.63,32.63,0,0,0,222.9,16.2Z"/><path class="cls-6" d="M43.25,11.46H219.3a34,34,0,0,1,34,34V488.71a34,34,0,0,1-34,34H43.25a34,34,0,0,1-34-34h0V45.5a34,34,0,0,1,34-34Z"/><path class="cls-7" d="M253.35,488.71a34.14,34.14,0,0,1-34,34H43.25a34.14,34.14,0,0,1-34-34V45.5a34.15,34.15,0,0,1,34-34H219.3a34.15,34.15,0,0,1,34,34Zm-34-481H43.25A37.94,37.94,0,0,0,5.42,45.5V488.71a37.94,37.94,0,0,0,37.83,37.83H219.3a37.94,37.94,0,0,0,37.83-37.83V45.5A37.94,37.94,0,0,0,219.3,7.67Z"/><rect class="cls-6" x="9.12" y="11.37" width="244.32" height="511.45" rx="34.15" ry="34.15"/><path class="cls-8" d="M253.43,488.66a34.25,34.25,0,0,1-34.15,34.15h-176A34.25,34.25,0,0,1,9.12,488.66V45.52A34.25,34.25,0,0,1,43.27,11.37h176a34.25,34.25,0,0,1,34.15,34.15ZM219.28,7.81h-176A37.81,37.81,0,0,0,5.56,45.52V488.66a37.81,37.81,0,0,0,37.71,37.71h176A37.81,37.81,0,0,0,257,488.66V45.52A37.81,37.81,0,0,0,219.28,7.81Z"/><rect class="cls-6" x="9.03" y="11.28" width="244.49" height="511.59" rx="34.26" ry="34.26"/><path class="cls-9" d="M253.52,488.6a34.35,34.35,0,0,1-34.26,34.26h-176A34.35,34.35,0,0,1,9,488.6V45.54A34.35,34.35,0,0,1,43.29,11.28h176a34.35,34.35,0,0,1,34.26,34.26ZM219.26,8h-176A37.68,37.68,0,0,0,5.71,45.54V488.6a37.68,37.68,0,0,0,37.58,37.59h176a37.68,37.68,0,0,0,37.58-37.59V45.54A37.68,37.68,0,0,0,219.26,8Z"/><path class="cls-6" d="M219.24,11.19H43.31A34.45,34.45,0,0,0,8.95,45.56v443a34.45,34.45,0,0,0,34.37,34.37H219.24a34.45,34.45,0,0,0,34.37-34.37v-443A34.45,34.45,0,0,0,219.24,11.19Z"/><path class="cls-10" d="M253.6,488.55a34.45,34.45,0,0,1-34.37,34.37H43.31A34.45,34.45,0,0,1,8.95,488.55v-443A34.45,34.45,0,0,1,43.31,11.19H219.24A34.45,34.45,0,0,1,253.6,45.56ZM219.24,8.09H43.31A37.55,37.55,0,0,0,5.85,45.56v443A37.55,37.55,0,0,0,43.31,526H219.24a37.55,37.55,0,0,0,37.46-37.47v-443A37.56,37.56,0,0,0,219.24,8.09Z"/><path class="cls-6" d="M219.22,11.1H43.33A34.55,34.55,0,0,0,8.86,45.58V488.5A34.55,34.55,0,0,0,43.33,523H219.22a34.55,34.55,0,0,0,34.47-34.48V45.58A34.55,34.55,0,0,0,219.22,11.1Z"/><path class="cls-11" d="M253.69,488.5A34.55,34.55,0,0,1,219.22,523H43.33A34.55,34.55,0,0,1,8.86,488.5V45.58A34.55,34.55,0,0,1,43.33,11.1H219.22a34.55,34.55,0,0,1,34.47,34.48ZM219.22,8.23H43.33A37.42,37.42,0,0,0,6,45.58V488.5a37.42,37.42,0,0,0,37.33,37.35H219.22a37.43,37.43,0,0,0,37.33-37.35V45.58A37.43,37.43,0,0,0,219.22,8.23Z"/><path class="cls-6" d="M219.2,11H43.35A34.66,34.66,0,0,0,8.78,45.6V488.44A34.66,34.66,0,0,0,43.35,523H219.2a34.66,34.66,0,0,0,34.58-34.59V45.6A34.66,34.66,0,0,0,219.2,11Z"/><path class="cls-12" d="M253.77,488.44A34.66,34.66,0,0,1,219.2,523H43.35A34.66,34.66,0,0,1,8.78,488.44V45.6A34.66,34.66,0,0,1,43.35,11H219.2a34.66,34.66,0,0,1,34.57,34.6ZM219.2,8.37H43.35A37.3,37.3,0,0,0,6.14,45.6V488.44a37.3,37.3,0,0,0,37.21,37.22H219.2a37.3,37.3,0,0,0,37.21-37.22V45.6A37.3,37.3,0,0,0,219.2,8.37Z"/><path class="cls-6" d="M219.17,10.92H43.38A34.76,34.76,0,0,0,8.69,45.62V488.38a34.76,34.76,0,0,0,34.69,34.7h175.8a34.76,34.76,0,0,0,34.68-34.7V45.62A34.76,34.76,0,0,0,219.17,10.92Z"/><path class="cls-13" d="M253.86,488.38a34.76,34.76,0,0,1-34.68,34.7H43.38a34.76,34.76,0,0,1-34.69-34.7V45.62a34.76,34.76,0,0,1,34.69-34.7h175.8a34.76,34.76,0,0,1,34.68,34.7ZM219.17,8.51H43.38A37.17,37.17,0,0,0,6.29,45.62V488.38a37.17,37.17,0,0,0,37.09,37.1h175.8a37.17,37.17,0,0,0,37.09-37.1V45.62A37.17,37.17,0,0,0,219.17,8.51Z"/><path class="cls-6" d="M219.15,10.83H43.39A34.86,34.86,0,0,0,8.6,45.64V488.33a34.86,34.86,0,0,0,34.79,34.81H219.15a34.86,34.86,0,0,0,34.79-34.81V45.64A34.86,34.86,0,0,0,219.15,10.83Z"/><path class="cls-14" d="M253.94,488.33a34.86,34.86,0,0,1-34.79,34.81H43.39A34.86,34.86,0,0,1,8.6,488.33V45.64A34.86,34.86,0,0,1,43.39,10.83H219.15a34.86,34.86,0,0,1,34.79,34.81ZM219.15,8.65H43.39a37,37,0,0,0-37,37h0V488.33a37,37,0,0,0,37,37H219.15a37,37,0,0,0,37-37V45.64A37,37,0,0,0,219.15,8.65Z"/><path class="cls-6" d="M219.13,10.74H43.42A35,35,0,0,0,8.52,45.66V488.27a35,35,0,0,0,34.9,34.92H219.13A35,35,0,0,0,254,488.27V45.66A35,35,0,0,0,219.13,10.74Z"/><path class="cls-15" d="M254,488.27a35,35,0,0,1-34.89,34.92H43.42a35,35,0,0,1-34.9-34.92V45.66a35,35,0,0,1,34.9-34.92H219.13A35,35,0,0,1,254,45.66ZM219.13,8.79H43.42A36.91,36.91,0,0,0,6.58,45.66V488.27a36.91,36.91,0,0,0,36.84,36.86H219.13A36.91,36.91,0,0,0,256,488.27V45.66A36.91,36.91,0,0,0,219.13,8.79Z"/><path class="cls-6" d="M219.11,10.65H43.44a35.06,35.06,0,0,0-35,35V488.22a35.06,35.06,0,0,0,35,35H219.11a35.06,35.06,0,0,0,35-35V45.68A35.06,35.06,0,0,0,219.11,10.65Z"/><path class="cls-16" d="M254.11,488.22a35.06,35.06,0,0,1-35,35H43.44a35.06,35.06,0,0,1-35-35V45.68a35.06,35.06,0,0,1,35-35H219.11a35.06,35.06,0,0,1,35,35Zm-35-479.29H43.44A36.78,36.78,0,0,0,6.72,45.68V488.22A36.78,36.78,0,0,0,43.44,525H219.11a36.78,36.78,0,0,0,36.71-36.74V45.68A36.78,36.78,0,0,0,219.11,8.93Z"/><path class="cls-6" d="M219.09,10.56H43.46A35.17,35.17,0,0,0,8.35,45.7V488.16A35.17,35.17,0,0,0,43.46,523.3H219.09a35.17,35.17,0,0,0,35.11-35.14V45.7A35.16,35.16,0,0,0,219.09,10.56Z"/><path class="cls-17" d="M254.2,488.16a35.17,35.17,0,0,1-35.11,35.14H43.46A35.17,35.17,0,0,1,8.35,488.16V45.7A35.17,35.17,0,0,1,43.46,10.56H219.09A35.16,35.16,0,0,1,254.2,45.7ZM219.09,9.08H43.46A36.65,36.65,0,0,0,6.87,45.7V488.16a36.65,36.65,0,0,0,36.59,36.62H219.09a36.65,36.65,0,0,0,36.59-36.62V45.7A36.65,36.65,0,0,0,219.09,9.08Z"/><path class="cls-6" d="M219.07,10.47H43.48A35.27,35.27,0,0,0,8.26,45.72V488.11a35.27,35.27,0,0,0,35.22,35.24H219.07a35.27,35.27,0,0,0,35.21-35.24V45.72A35.27,35.27,0,0,0,219.07,10.47Z"/><path class="cls-18" d="M254.28,488.11a35.27,35.27,0,0,1-35.21,35.24H43.48A35.27,35.27,0,0,1,8.26,488.11V45.72A35.27,35.27,0,0,1,43.48,10.47H219.07a35.27,35.27,0,0,1,35.21,35.25ZM219.07,9.22H43.48A36.52,36.52,0,0,0,7,45.72V488.11a36.52,36.52,0,0,0,36.47,36.5h175.6a36.52,36.52,0,0,0,36.46-36.5V45.72A36.52,36.52,0,0,0,219.07,9.22Z"/><path class="cls-19" d="M146,526.54a1.66,1.66,0,0,0-1.51-1H117.88a1.66,1.66,0,0,0-1.51,1Z"/><path class="cls-19" d="M58.88,526.54c-1.26-.92-4.36-1-4.79-1s-3.53,0-4.79,1Z"/><path class="cls-20" d="M130.84,471.43a20.77,20.77,0,1,0,20.77,20.77h0A20.77,20.77,0,0,0,130.84,471.43Zm0,40.82a20,20,0,1,1,20-20A20,20,0,0,1,130.84,512.25Z"/><circle class="cls-21" cx="130.84" cy="492.2" r="20.05"/><circle class="cls-22" cx="130.84" cy="492.2" r="18.01"/><path class="cls-20" d="M130.84,474.81c9.94,0,18,7.78,18,17.39a18,18,0,0,0-36,0h0C112.84,482.59,120.9,474.81,130.84,474.81Zm0,34.78c-9.95,0-18-7.79-18-17.39a18,18,0,0,0,36,0C148.85,501.8,140.79,509.59,130.84,509.59Z"/><circle class="cls-23" cx="131.78" cy="22.6" r="3.17"/><circle class="cls-20" cx="90.83" cy="39.86" r="4.35"/><circle class="cls-24" cx="90.83" cy="39.86" r="4.14"/><circle class="cls-20" cx="90.69" cy="39.74" r="2.98"/><circle class="cls-25" cx="90.7" cy="39.75" r="2.94"/><circle class="cls-26" cx="90.71" cy="39.76" r="2.9"/><circle class="cls-27" cx="90.71" cy="39.76" r="2.86"/><circle class="cls-28" cx="90.72" cy="39.77" r="2.83"/><circle class="cls-29" cx="90.73" cy="39.77" r="2.79"/><circle class="cls-30" cx="90.73" cy="39.78" r="2.75"/><circle class="cls-31" cx="90.74" cy="39.78" r="2.71"/><circle class="cls-32" cx="90.74" cy="39.79" r="2.67"/><circle class="cls-33" cx="90.75" cy="39.8" r="2.63"/><circle class="cls-34" cx="90.76" cy="39.8" r="2.59"/><circle class="cls-35" cx="90.76" cy="39.81" r="2.56"/><circle class="cls-36" cx="90.77" cy="39.81" r="2.52"/><circle class="cls-37" cx="90.78" cy="39.82" r="2.48"/><circle class="cls-38" cx="90.78" cy="39.82" r="2.44"/><circle class="cls-39" cx="90.79" cy="39.83" r="2.4"/><circle class="cls-40" cx="90.79" cy="39.83" r="2.36"/><circle class="cls-41" cx="90.8" cy="39.84" r="2.32"/><circle class="cls-42" cx="90.81" cy="39.85" r="2.28"/><circle class="cls-43" cx="90.81" cy="39.85" r="2.25"/><circle class="cls-44" cx="90.82" cy="39.86" r="2.21"/><circle cx="90.83" cy="39.86" r="2.17"/><path class="cls-45" d="M150.05,41.45H113.21A1.49,1.49,0,0,1,111.72,40v-.3a1.49,1.49,0,0,1,1.48-1.5h36.85a1.5,1.5,0,0,1,1.49,1.5V40a1.49,1.49,0,0,1-1.49,1.49h0Z"/><path class="cls-46" d="M121.6,41.25a.14.14,0,0,0,0-.2h0l-.05,0a.14.14,0,0,0-.2,0h0l-.51.5a.14.14,0,0,0,0,.12h.43Z"/><path class="cls-46" d="M121.6,38.42a.14.14,0,0,0,0-.2h0l-.05,0a.14.14,0,0,0-.2,0h0l-.51.5a.14.14,0,0,0,0,.2h.05a.14.14,0,0,0,.2,0h0Z"/><path class="cls-47" d="M121.5,38.38a.06.06,0,0,0,0-.08h0a.07.07,0,0,0-.09,0l-.23.22a.06.06,0,0,0,0,.08h0a.06.06,0,0,0,.08,0h0Z"/><path class="cls-46" d="M121,39.09a.16.16,0,0,0,.23,0h0l.06-.06a.16.16,0,0,0,0-.23h0l-.33-.33a.17.17,0,0,0-.23,0l-.06.06a.16.16,0,0,0,0,.23h0Z"/><path class="cls-47" d="M121,38.91a.07.07,0,0,0,.1,0h0a.06.06,0,0,0,0-.08h0l-.13-.13a.07.07,0,0,0-.1,0h0a.07.07,0,0,0,0,.09Z"/><path class="cls-46" d="M121.6,39.36a.14.14,0,0,0,0-.2h0l-.05,0a.15.15,0,0,0-.2,0l-.51.51a.14.14,0,0,0,0,.2h0l.05,0a.15.15,0,0,0,.2,0Z"/><path class="cls-47" d="M121.5,39.32a.06.06,0,0,0,0-.08h0a.07.07,0,0,0-.09,0l-.23.22a.06.06,0,0,0,0,.08h0a.07.07,0,0,0,.09,0Z"/><path class="cls-46" d="M121,40a.16.16,0,0,0,.23,0h0l.06-.06a.16.16,0,0,0,0-.23h0l-.33-.33a.16.16,0,0,0-.23,0h0l-.06.06a.16.16,0,0,0,0,.23h0Z"/><path class="cls-47" d="M121,39.86a.07.07,0,0,0,.1,0h0a.06.06,0,0,0,0-.08h0l-.13-.13a.07.07,0,0,0-.1,0h0a.07.07,0,0,0,0,.09Z"/><path class="cls-46" d="M121.6,40.31a.14.14,0,0,0,0-.2h0l-.05,0a.15.15,0,0,0-.2,0l-.51.5a.14.14,0,0,0,0,.2h0l.05.06a.15.15,0,0,0,.2,0Z"/><path class="cls-47" d="M121.5,40.26a.06.06,0,0,0,0-.08h0a.06.06,0,0,0-.08,0h0l-.23.22a.07.07,0,0,0,0,.09h0a.06.06,0,0,0,.08,0h0Z"/><path class="cls-46" d="M121,41a.16.16,0,0,0,.23,0h0l.06-.06a.16.16,0,0,0,0-.23h0l-.33-.33a.17.17,0,0,0-.23,0l-.06.06a.16.16,0,0,0,0,.23h0Z"/><path class="cls-47" d="M121,40.8a.07.07,0,0,0,.1,0h0a.06.06,0,0,0,0-.08h0l-.13-.13a.06.06,0,0,0-.08,0l0,0h0a.06.06,0,0,0,0,.08h0Z"/><path class="cls-47" d="M121.5,41.21a.06.06,0,0,0,0-.08h0a.07.07,0,0,0-.09,0l-.23.22a.06.06,0,0,0,0,.08h0a.06.06,0,0,0,.08,0h0Z"/><path class="cls-46" d="M120.44,41.25a.14.14,0,0,0,0-.2h0l-.05,0a.14.14,0,0,0-.2,0h0l-.51.5a.13.13,0,0,0,0,.12h.43Z"/><path class="cls-46" d="M120.44,38.42a.14.14,0,0,0,0-.2h0l-.05,0a.14.14,0,0,0-.2,0h0l-.51.5a.15.15,0,0,0,0,.2h.05a.14.14,0,0,0,.2,0h0Z"/><path class="cls-47" d="M120.34,38.38a.06.06,0,0,0,0-.08h0a.07.07,0,0,0-.09,0l-.22.22a.06.06,0,0,0,0,.08h0a.06.06,0,0,0,.08,0h0Z"/><path class="cls-46" d="M119.81,39.09a.16.16,0,0,0,.23,0h0l.06-.06a.16.16,0,0,0,0-.23h0l-.33-.33a.16.16,0,0,0-.23,0h0l-.06.06a.16.16,0,0,0,0,.23h0Z"/><path class="cls-47" d="M119.8,38.91a.07.07,0,0,0,.1,0h0a.07.07,0,0,0,0-.09l-.14-.13a.07.07,0,0,0-.1,0h0a.06.06,0,0,0,0,.08h0Z"/><path class="cls-46" d="M120.44,39.36a.14.14,0,0,0,0-.2h0l-.05,0a.15.15,0,0,0-.2,0l-.51.51a.14.14,0,0,0,0,.2h0l.05,0a.15.15,0,0,0,.2,0Z"/><path class="cls-47" d="M120.34,39.32a.06.06,0,0,0,0-.08h0a.07.07,0,0,0-.09,0l-.22.22a.06.06,0,0,0,0,.08h0a.07.07,0,0,0,.09,0Z"/><path class="cls-46" d="M119.81,40a.16.16,0,0,0,.23,0h0l.06-.06a.16.16,0,0,0,0-.23h0l-.33-.33a.16.16,0,0,0-.23,0h0l-.06.06a.16.16,0,0,0,0,.23h0Z"/><path class="cls-47" d="M119.8,39.86a.07.07,0,0,0,.1,0h0a.07.07,0,0,0,0-.09l-.14-.13a.07.07,0,0,0-.1,0h0a.06.06,0,0,0,0,.08h0Z"/><path class="cls-46" d="M120.44,40.31a.14.14,0,0,0,0-.2h0l-.05,0a.15.15,0,0,0-.2,0l-.51.5a.15.15,0,0,0,0,.2l.05.06a.15.15,0,0,0,.2,0Z"/><path class="cls-47" d="M120.34,40.26a.07.07,0,0,0,0-.09h0a.06.06,0,0,0-.08,0h0l-.22.22a.06.06,0,0,0,0,.08h0a.06.06,0,0,0,.08,0h0Z"/><path class="cls-46" d="M119.81,41a.16.16,0,0,0,.23,0h0l.06-.06a.16.16,0,0,0,0-.23h0l-.33-.33a.17.17,0,0,0-.23,0l-.06.06a.16.16,0,0,0,0,.23h0Z"/><path class="cls-47" d="M119.8,40.8a.07.07,0,0,0,.1,0h0a.07.07,0,0,0,0-.09l-.14-.13a.07.07,0,0,0-.1,0h0a.06.06,0,0,0,0,.08h0Z"/><path class="cls-47" d="M120.34,41.21a.07.07,0,0,0,0-.09h0a.07.07,0,0,0-.09,0l-.22.22a.06.06,0,0,0,0,.08h0a.06.06,0,0,0,.08,0h0Z"/><path class="cls-46" d="M119.27,41.25a.14.14,0,0,0,0-.2h0l-.05,0a.14.14,0,0,0-.2,0h0l-.51.5a.13.13,0,0,0,0,.12h.43Z"/><path class="cls-46" d="M119.27,38.42a.14.14,0,0,0,0-.2h0l-.05,0a.14.14,0,0,0-.2,0h0l-.51.5a.14.14,0,0,0,0,.2h.05a.14.14,0,0,0,.2,0h0Z"/><path class="cls-47" d="M119.17,38.38a.06.06,0,0,0,0-.08h0a.06.06,0,0,0-.08,0h0l-.23.22a.06.06,0,0,0,0,.08h0a.06.06,0,0,0,.08,0h0Z"/><path class="cls-46" d="M118.65,39.09a.16.16,0,0,0,.23,0h0l.06-.06a.16.16,0,0,0,0-.23h0l-.33-.33a.16.16,0,0,0-.23,0h0l-.06.06a.16.16,0,0,0,0,.23h0Z"/><path class="cls-47" d="M118.63,38.91a.07.07,0,0,0,.1,0h0a.07.07,0,0,0,0-.09l-.14-.13a.07.07,0,0,0-.09,0h0a.07.07,0,0,0,0,.09Z"/><path class="cls-46" d="M119.27,39.36a.14.14,0,0,0,0-.2h0l-.05,0a.15.15,0,0,0-.2,0l-.51.51a.14.14,0,0,0,0,.2h0l.05,0a.15.15,0,0,0,.2,0Z"/><path class="cls-47" d="M119.17,39.32a.06.06,0,0,0,0-.08h0a.06.06,0,0,0-.08,0h0l-.23.22a.06.06,0,0,0,0,.08h0a.07.07,0,0,0,.09,0Z"/><path class="cls-46" d="M118.65,40a.16.16,0,0,0,.23,0h0l.06-.06a.16.16,0,0,0,0-.23h0l-.33-.33a.16.16,0,0,0-.23,0h0l-.06.06a.16.16,0,0,0,0,.23h0Z"/><path class="cls-47" d="M118.63,39.86a.07.07,0,0,0,.1,0h0a.07.07,0,0,0,0-.09l-.14-.13a.06.06,0,0,0-.08,0h0a.07.07,0,0,0,0,.09Z"/><path class="cls-46" d="M119.27,40.31a.14.14,0,0,0,0-.2h0l-.05,0a.14.14,0,0,0-.2,0h0l-.51.5a.14.14,0,0,0,0,.2h0l.05.06a.15.15,0,0,0,.2,0Z"/><path class="cls-47" d="M119.17,40.26a.06.06,0,0,0,0-.08h0a.06.06,0,0,0-.08,0h0l-.23.22a.06.06,0,0,0,0,.08h0a.06.06,0,0,0,.08,0h0Z"/><path class="cls-46" d="M118.65,41a.16.16,0,0,0,.23,0h0l.06-.06a.16.16,0,0,0,0-.23h0l-.33-.33a.17.17,0,0,0-.23,0l-.06.06a.16.16,0,0,0,0,.23h0Z"/><path class="cls-47" d="M118.63,40.8a.07.07,0,0,0,.1,0h0a.07.07,0,0,0,0-.09l-.14-.13a.06.06,0,0,0-.08,0h0a.06.06,0,0,0,0,.08h0Z"/><path class="cls-47" d="M119.17,41.21a.06.06,0,0,0,0-.08h0a.07.07,0,0,0-.09,0l-.23.22a.06.06,0,0,0,0,.08h0a.06.06,0,0,0,.08,0h0Z"/><path class="cls-46" d="M118.11,41.25a.14.14,0,0,0,0-.2h0l-.06,0a.14.14,0,0,0-.2,0h0l-.51.5a.15.15,0,0,0,0,.12h.43Z"/><path class="cls-46" d="M118.11,38.42a.14.14,0,0,0,0-.2h0l-.06,0a.14.14,0,0,0-.2,0h0l-.51.5a.14.14,0,0,0,0,.2h.05a.14.14,0,0,0,.2,0h0Z"/><path class="cls-47" d="M118,38.38a.06.06,0,0,0,0-.08h0a.07.07,0,0,0-.09,0l-.22.22a.06.06,0,0,0,0,.08h0a.06.06,0,0,0,.08,0h0Z"/><path class="cls-46" d="M117.49,39.09a.16.16,0,0,0,.23,0h0l.06-.06a.16.16,0,0,0,0-.23h0l-.33-.33a.16.16,0,0,0-.23,0h0l-.06.06a.15.15,0,0,0,0,.21l0,0Z"/><path class="cls-47" d="M117.47,38.91a.07.07,0,0,0,.1,0h0a.06.06,0,0,0,0-.08h0l-.13-.13a.07.07,0,0,0-.1,0h0a.06.06,0,0,0,0,.08h0Z"/><path class="cls-46" d="M118.11,39.36a.14.14,0,0,0,0-.2h0l-.06,0a.15.15,0,0,0-.2,0l-.51.51a.14.14,0,0,0,0,.2h0l.05,0a.15.15,0,0,0,.2,0Z"/><path class="cls-47" d="M118,39.32a.06.06,0,0,0,0-.08h0a.07.07,0,0,0-.09,0l-.22.22a.06.06,0,0,0,0,.08h0a.07.07,0,0,0,.09,0Z"/><path class="cls-46" d="M117.49,40a.16.16,0,0,0,.23,0h0l.06-.06a.16.16,0,0,0,0-.23h0l-.33-.33a.16.16,0,0,0-.23,0h0l-.06.06a.15.15,0,0,0,0,.21l0,0Z"/><path class="cls-47" d="M117.47,39.86a.07.07,0,0,0,.1,0h0a.06.06,0,0,0,0-.08h0l-.13-.13a.07.07,0,0,0-.1,0h0a.06.06,0,0,0,0,.08h0Z"/><path class="cls-46" d="M118.11,40.31a.14.14,0,0,0,0-.2h0l-.06,0a.14.14,0,0,0-.2,0h0l-.51.5a.14.14,0,0,0,0,.2h0l.05.06a.15.15,0,0,0,.2,0Z"/><path class="cls-47" d="M118,40.26a.06.06,0,0,0,0-.08h0a.06.06,0,0,0-.08,0h0l-.22.22a.06.06,0,0,0,0,.08h0a.06.06,0,0,0,.08,0h0Z"/><path class="cls-46" d="M117.49,41a.16.16,0,0,0,.23,0h0l.06-.06a.16.16,0,0,0,0-.23h0l-.33-.33a.17.17,0,0,0-.23,0l-.06.06a.16.16,0,0,0,0,.23h0Z"/><path class="cls-47" d="M117.47,40.8a.07.07,0,0,0,.1,0h0a.06.06,0,0,0,0-.08h0l-.13-.13a.06.06,0,0,0-.08,0l0,0h0a.06.06,0,0,0,0,.08h0Z"/><path class="cls-47" d="M118,41.21a.06.06,0,0,0,0-.08h0a.07.07,0,0,0-.09,0l-.22.22a.06.06,0,0,0,0,.08h0a.06.06,0,0,0,.08,0h0Z"/><path class="cls-46" d="M116.95,41.25a.14.14,0,0,0,0-.2h0l-.05,0a.14.14,0,0,0-.2,0h0l-.51.5a.13.13,0,0,0,0,.12h.43Z"/><path class="cls-46" d="M116.95,38.42a.14.14,0,0,0,0-.2h0l-.05,0a.15.15,0,0,0-.2,0l-.51.5a.14.14,0,0,0,0,.2h.05a.14.14,0,0,0,.2,0h0Z"/><path class="cls-47" d="M116.85,38.38a.06.06,0,0,0,0-.08h0a.06.06,0,0,0-.08,0h0l-.23.22a.06.06,0,0,0,0,.08h0a.06.06,0,0,0,.08,0h0Z"/><path class="cls-46" d="M116.32,39.09a.16.16,0,0,0,.23,0h0l.06-.06a.16.16,0,0,0,0-.23h0l-.33-.33a.16.16,0,0,0-.23,0h0l-.06.06a.16.16,0,0,0,0,.23h0Z"/><path class="cls-47" d="M116.31,38.91a.07.07,0,0,0,.09,0h0a.06.06,0,0,0,0-.08h0l-.14-.13a.07.07,0,0,0-.1,0h0a.07.07,0,0,0,0,.09Z"/><path class="cls-46" d="M116.95,39.36a.14.14,0,0,0,0-.2h0l-.05,0a.15.15,0,0,0-.2,0l-.51.51a.14.14,0,0,0,0,.2h0l.05,0a.15.15,0,0,0,.2,0Z"/><path class="cls-47" d="M116.85,39.32a.06.06,0,0,0,0-.08h0a.06.06,0,0,0-.08,0h0l-.23.22a.06.06,0,0,0,0,.08h0a.07.07,0,0,0,.09,0Z"/><path class="cls-46" d="M116.32,40a.16.16,0,0,0,.23,0h0l.06-.06a.15.15,0,0,0,0-.21l0,0-.33-.33a.16.16,0,0,0-.23,0h0l-.06.06a.16.16,0,0,0,0,.23h0Z"/><path class="cls-47" d="M116.31,39.86a.07.07,0,0,0,.09,0h0a.06.06,0,0,0,0-.08h0l-.14-.13a.07.07,0,0,0-.1,0h0a.07.07,0,0,0,0,.09Z"/><path class="cls-46" d="M116.95,40.31a.14.14,0,0,0,0-.2h0l-.05,0a.15.15,0,0,0-.2,0l-.51.5a.14.14,0,0,0,0,.2h0l.05.06a.15.15,0,0,0,.2,0Z"/><path class="cls-47" d="M116.85,40.26a.06.06,0,0,0,0-.08h0a.06.06,0,0,0-.08,0h0l-.23.22a.06.06,0,0,0,0,.08h0a.06.06,0,0,0,.08,0h0Z"/><path class="cls-46" d="M116.32,41a.16.16,0,0,0,.23,0h0l.06-.06a.15.15,0,0,0,0-.21l0,0-.33-.33a.17.17,0,0,0-.23,0l-.06.06a.16.16,0,0,0,0,.23h0Z"/><path class="cls-47" d="M116.31,40.8a.07.07,0,0,0,.09,0h0a.06.06,0,0,0,0-.08h0l-.14-.13a.06.06,0,0,0-.08,0l0,0h0a.06.06,0,0,0,0,.08h0Z"/><path class="cls-47" d="M116.85,41.21a.06.06,0,0,0,0-.08h0a.07.07,0,0,0-.09,0l-.23.22a.06.06,0,0,0,0,.08h0a.06.06,0,0,0,.08,0h0Z"/><path class="cls-46" d="M115.78,41.25a.14.14,0,0,0,0-.2h0l-.05,0a.14.14,0,0,0-.2,0h0l-.51.5a.15.15,0,0,0,0,.12h.43Z"/><path class="cls-46" d="M115.78,38.42a.14.14,0,0,0,0-.2h0l-.05,0a.15.15,0,0,0-.2,0l-.51.5a.14.14,0,0,0,0,.2h.05a.14.14,0,0,0,.2,0h0Z"/><path class="cls-47" d="M115.68,38.38a.06.06,0,0,0,0-.08h0a.07.07,0,0,0-.09,0l-.22.22a.06.06,0,0,0,0,.08h0a.06.06,0,0,0,.08,0h0Z"/><path class="cls-46" d="M115.16,39.09a.17.17,0,0,0,.23,0l.06-.06a.16.16,0,0,0,0-.23h0l-.33-.33a.16.16,0,0,0-.23,0h0l-.06.06a.16.16,0,0,0,0,.23h0Z"/><path class="cls-47" d="M115.15,38.91a.07.07,0,0,0,.1,0h0a.07.07,0,0,0,0-.09l-.14-.13a.07.07,0,0,0-.09,0h0a.07.07,0,0,0,0,.09Z"/><path class="cls-46" d="M115.78,39.36a.14.14,0,0,0,0-.2h0l-.05,0a.15.15,0,0,0-.2,0l-.51.51a.14.14,0,0,0,0,.2h0l.05,0a.14.14,0,0,0,.2,0h0Z"/><path class="cls-47" d="M115.68,39.32a.06.06,0,0,0,0-.08h0a.07.07,0,0,0-.09,0l-.22.22a.06.06,0,0,0,0,.08h0a.07.07,0,0,0,.09,0Z"/><path class="cls-46" d="M115.16,40a.16.16,0,0,0,.23,0h0l.06-.06a.16.16,0,0,0,0-.23h0l-.33-.33a.16.16,0,0,0-.23,0h0l-.06.06a.16.16,0,0,0,0,.23h0Z"/><path class="cls-47" d="M115.15,39.86a.07.07,0,0,0,.1,0h0a.07.07,0,0,0,0-.09l-.14-.13a.06.06,0,0,0-.08,0h0a.07.07,0,0,0,0,.09Z"/><path class="cls-46" d="M115.78,40.31a.14.14,0,0,0,0-.2h0l-.05,0a.15.15,0,0,0-.2,0l-.51.5a.14.14,0,0,0,0,.2h0l.05.06a.14.14,0,0,0,.2,0h0Z"/><path class="cls-47" d="M115.68,40.26a.07.07,0,0,0,0-.09h0a.06.06,0,0,0-.08,0h0l-.22.22a.07.07,0,0,0,0,.09h0a.06.06,0,0,0,.08,0h0Z"/><path class="cls-46" d="M115.16,41a.16.16,0,0,0,.23,0h0l.06-.06a.16.16,0,0,0,0-.23h0l-.33-.33a.17.17,0,0,0-.23,0l-.06.06a.16.16,0,0,0,0,.23h0Z"/><path class="cls-47" d="M115.15,40.8a.07.07,0,0,0,.1,0h0a.07.07,0,0,0,0-.09l-.14-.13a.06.06,0,0,0-.08,0h0a.06.06,0,0,0,0,.08h0Z"/><path class="cls-47" d="M115.68,41.21a.07.07,0,0,0,0-.09h0a.07.07,0,0,0-.09,0l-.22.22a.06.06,0,0,0,0,.08h0a.06.06,0,0,0,.08,0h0Z"/><path class="cls-46" d="M114.62,41.25a.14.14,0,0,0,0-.2h0l-.05,0a.15.15,0,0,0-.21,0l-.51.5a.13.13,0,0,0,0,.12h.43Z"/><path class="cls-46" d="M114.62,38.42a.14.14,0,0,0,0-.2h0l-.05,0a.15.15,0,0,0-.21,0l-.51.5a.15.15,0,0,0,0,.2h.05a.14.14,0,0,0,.2,0h0Z"/><path class="cls-47" d="M114.52,38.38a.06.06,0,0,0,0-.08h0a.07.07,0,0,0-.09,0l-.23.22a.06.06,0,0,0,0,.08h0a.06.06,0,0,0,.08,0h0Z"/><path class="cls-46" d="M114,39.09a.17.17,0,0,0,.23,0l.06-.06a.16.16,0,0,0,0-.23h0l-.33-.33a.16.16,0,0,0-.23,0h0l-.06.06a.16.16,0,0,0,0,.23h0Z"/><path class="cls-47" d="M114,38.91a.07.07,0,0,0,.1,0h0a.06.06,0,0,0,0-.08h0l-.14-.13a.07.07,0,0,0-.09,0h0a.07.07,0,0,0,0,.09Z"/><path class="cls-46" d="M114.62,39.36a.14.14,0,0,0,0-.2h0l-.05,0a.16.16,0,0,0-.21,0l-.51.51a.14.14,0,0,0,0,.2h0l.05,0a.15.15,0,0,0,.2,0Z"/><path class="cls-47" d="M114.52,39.32a.06.06,0,0,0,0-.08h0a.07.07,0,0,0-.09,0l-.23.22a.06.06,0,0,0,0,.08h0a.06.06,0,0,0,.08,0h0Z"/><path class="cls-46" d="M114,40a.16.16,0,0,0,.23,0h0l.06-.06a.16.16,0,0,0,0-.23h0l-.33-.33a.16.16,0,0,0-.23,0h0l-.06.06a.16.16,0,0,0,0,.23h0Z"/><path class="cls-47" d="M114,39.86a.07.07,0,0,0,.1,0h0a.06.06,0,0,0,0-.08h0l-.1-.17a.06.06,0,0,0-.08,0h0a.07.07,0,0,0,0,.09Z"/><path class="cls-46" d="M114.62,40.31a.14.14,0,0,0,0-.2h0l-.05,0a.15.15,0,0,0-.21,0l-.51.5a.15.15,0,0,0,0,.2l.05.06a.15.15,0,0,0,.2,0Z"/><path class="cls-47" d="M114.52,40.26a.06.06,0,0,0,0-.08h0a.06.06,0,0,0-.08,0h0l-.23.22a.06.06,0,0,0,0,.08h0a.06.06,0,0,0,.08,0h0Z"/><path class="cls-46" d="M114,41a.16.16,0,0,0,.23,0h0l.06-.06a.16.16,0,0,0,0-.23h0l-.33-.33a.17.17,0,0,0-.23,0l-.06.06a.16.16,0,0,0,0,.23h0Z"/><path class="cls-47" d="M114,40.8a.07.07,0,0,0,.1,0h0a.06.06,0,0,0,0-.08h0l-.14-.13a.06.06,0,0,0-.08,0h0a.07.07,0,0,0,0,.09Z"/><path class="cls-47" d="M114.52,41.21a.06.06,0,0,0,0-.08h0a.07.07,0,0,0-.09,0l-.23.22a.06.06,0,0,0,0,.08h0a.06.06,0,0,0,.08,0h0Z"/><path class="cls-46" d="M113.46,38.42a.15.15,0,0,0,0-.2l-.05,0a.15.15,0,0,0-.21,0l-.51.5a.14.14,0,0,0,0,.2h.05a.14.14,0,0,0,.2,0h0Z"/><path class="cls-47" d="M113.36,38.38a.06.06,0,0,0,0-.08h0a.07.07,0,0,0-.09,0l-.23.22a.06.06,0,0,0,0,.08h0a.06.06,0,0,0,.08,0h0Z"/><path class="cls-46" d="M112.83,39.09a.17.17,0,0,0,.23,0l.06-.06a.16.16,0,0,0,0-.23h0l-.33-.33a.16.16,0,0,0-.23,0h0l-.06.06a.17.17,0,0,0,0,.23Z"/><path class="cls-47" d="M112.82,38.91a.07.07,0,0,0,.1,0h0a.07.07,0,0,0,0-.09l-.14-.13a.07.07,0,0,0-.09,0h0a.07.07,0,0,0,0,.09Z"/><path class="cls-46" d="M113.46,39.36a.15.15,0,0,0,0-.2l-.05,0a.16.16,0,0,0-.21,0l-.51.51a.14.14,0,0,0,0,.2h0l.05,0a.14.14,0,0,0,.2,0h0Z"/><path class="cls-47" d="M113.36,39.32a.06.06,0,0,0,0-.08h0a.07.07,0,0,0-.09,0l-.23.22a.06.06,0,0,0,0,.08h0a.07.07,0,0,0,.09,0Z"/><path class="cls-46" d="M112.83,40a.16.16,0,0,0,.23,0h0l.06-.06a.16.16,0,0,0,0-.23h0l-.33-.33a.16.16,0,0,0-.23,0h0l-.06.06a.16.16,0,0,0,0,.23h0Z"/><path class="cls-47" d="M112.82,39.86a.07.07,0,0,0,.1,0h0a.07.07,0,0,0,0-.09l-.14-.13a.06.06,0,0,0-.08,0h0a.07.07,0,0,0,0,.09Z"/><path class="cls-46" d="M113.46,40.31a.15.15,0,0,0,0-.2l-.05,0a.15.15,0,0,0-.21,0l-.51.5a.14.14,0,0,0,0,.2h0l.05.06a.14.14,0,0,0,.2,0h0Z"/><path class="cls-47" d="M113.36,40.26a.06.06,0,0,0,0-.08h0a.06.06,0,0,0-.08,0h0l-.23.22a.07.07,0,0,0,0,.09h0a.06.06,0,0,0,.08,0h0Z"/><path class="cls-46" d="M112.83,41a.16.16,0,0,0,.23,0h0l.06-.06a.16.16,0,0,0,0-.23h0l-.33-.33a.17.17,0,0,0-.23,0l-.06.06a.17.17,0,0,0,0,.23Z"/><path class="cls-47" d="M112.82,40.8a.07.07,0,0,0,.1,0h0a.07.07,0,0,0,0-.09l-.14-.13a.06.06,0,0,0-.08,0h0a.06.06,0,0,0,0,.08h0Z"/><path class="cls-46" d="M113.46,41.25a.15.15,0,0,0,0-.2l-.06,0a.15.15,0,0,0-.21,0l-.51.5a.31.31,0,0,1,.17.06l.23.06Z"/><path class="cls-47" d="M113.36,41.21a.06.06,0,0,0,0-.08h0a.07.07,0,0,0-.09,0l-.23.22a.06.06,0,0,0,0,.08h0a.06.06,0,0,0,.08,0h0Z"/><path class="cls-46" d="M112.47,39.19a.14.14,0,0,0,0-.2h0l-.05,0a.14.14,0,0,0-.2,0h0l-.51.5a.13.13,0,0,0,0,.12V40Z"/><path class="cls-47" d="M112.37,39.15a.06.06,0,0,0,0-.08h0a.06.06,0,0,0-.08,0h0l-.23.22a.06.06,0,0,0,0,.08h0a.06.06,0,0,0,.08,0h0Z"/><path class="cls-46" d="M112.51,40.14a.14.14,0,0,0,0-.2h0l-.05,0a.15.15,0,0,0-.2,0l-.51.5a.13.13,0,0,0,0,.12l.14.29Z"/><path class="cls-47" d="M112.41,40.1a.07.07,0,0,0,0-.09h0a.06.06,0,0,0-.08,0h0l-.23.22a.06.06,0,0,0,0,.08h0a.06.06,0,0,0,.08,0h0Z"/><path class="cls-46" d="M130.9,41.25a.14.14,0,0,0,0-.2h0l-.05,0a.14.14,0,0,0-.2,0h0l-.51.5a.14.14,0,0,0,0,.12h.43Z"/><path class="cls-46" d="M130.9,38.42a.14.14,0,0,0,0-.2h0l-.05,0a.14.14,0,0,0-.2,0h0l-.51.5a.14.14,0,0,0,0,.2h.06a.14.14,0,0,0,.2,0h0Z"/><path class="cls-47" d="M130.81,38.38a.06.06,0,0,0,0-.08h0a.07.07,0,0,0-.09,0l-.22.22a.06.06,0,0,0,0,.08h0a.06.06,0,0,0,.08,0h0Z"/><path class="cls-46" d="M130.28,39.09a.16.16,0,0,0,.23,0h0l.06-.06a.17.17,0,0,0,0-.23l-.33-.33a.17.17,0,0,0-.23,0l-.06.06a.16.16,0,0,0,0,.23h0Z"/><path class="cls-47" d="M130.27,38.91a.07.07,0,0,0,.09,0h0a.07.07,0,0,0,0-.09l-.14-.13a.07.07,0,0,0-.09,0h0a.07.07,0,0,0,0,.09Z"/><path class="cls-46" d="M130.9,39.36a.14.14,0,0,0,0-.2h0l-.05,0a.15.15,0,0,0-.2,0l-.51.51a.14.14,0,0,0,0,.2h0l.06,0a.15.15,0,0,0,.2,0Z"/><path class="cls-47" d="M130.81,39.32a.06.06,0,0,0,0-.08h0a.07.07,0,0,0-.09,0l-.22.22a.06.06,0,0,0,0,.08h0a.07.07,0,0,0,.09,0Z"/><path class="cls-46" d="M130.28,40a.16.16,0,0,0,.23,0h0l.06-.06a.16.16,0,0,0,0-.23h0l-.33-.33a.16.16,0,0,0-.23,0h0l-.06.06a.16.16,0,0,0,0,.23h0Z"/><path class="cls-47" d="M130.27,39.86a.07.07,0,0,0,.09,0h0a.07.07,0,0,0,0-.09l-.14-.13a.06.06,0,0,0-.08,0h0a.07.07,0,0,0,0,.09Z"/><path class="cls-46" d="M130.9,40.31a.14.14,0,0,0,0-.2h0l-.05,0a.15.15,0,0,0-.2,0l-.51.5a.14.14,0,0,0,0,.2h0l.06.06a.15.15,0,0,0,.2,0Z"/><path class="cls-47" d="M130.81,40.26a.06.06,0,0,0,0-.08h0a.06.06,0,0,0-.08,0h0l-.22.22a.06.06,0,0,0,0,.08h0a.06.06,0,0,0,.08,0h0Z"/><path class="cls-46" d="M130.28,41a.16.16,0,0,0,.23,0h0l.06-.06a.16.16,0,0,0,0-.23h0l-.33-.33a.17.17,0,0,0-.23,0l-.06.06a.16.16,0,0,0,0,.23h0Z"/><path class="cls-47" d="M130.27,40.8a.07.07,0,0,0,.09,0h0a.07.07,0,0,0,0-.09l-.14-.13a.06.06,0,0,0-.08,0h0a.06.06,0,0,0,0,.08h0Z"/><path class="cls-47" d="M130.81,41.21a.06.06,0,0,0,0-.08h0a.07.07,0,0,0-.09,0l-.22.22a.06.06,0,0,0,0,.08h0a.06.06,0,0,0,.08,0h0Z"/><path class="cls-46" d="M129.74,41.25a.15.15,0,0,0,0-.2l-.05,0a.14.14,0,0,0-.2,0h0l-.51.5a.13.13,0,0,0,0,.12h.43Z"/><path class="cls-46" d="M129.74,38.42a.15.15,0,0,0,0-.2l-.05,0a.15.15,0,0,0-.2,0l-.51.5a.14.14,0,0,0,0,.2H129a.14.14,0,0,0,.2,0h0Z"/><path class="cls-47" d="M129.64,38.38a.06.06,0,0,0,0-.08h0a.07.07,0,0,0-.09,0l-.23.22a.06.06,0,0,0,0,.08h0a.06.06,0,0,0,.08,0h0Z"/><rect class="cls-46" x="128.89" y="38.4" width="0.41" height="0.79" rx="0.16" ry="0.16" transform="translate(11.41 104.53) rotate(-45.91)"/><path class="cls-47" d="M129.11,38.91a.07.07,0,0,0,.09,0h0a.06.06,0,0,0,0-.08h0l-.13-.13a.07.07,0,0,0-.1,0h0a.07.07,0,0,0,0,.09Z"/><path class="cls-46" d="M129.74,39.36a.15.15,0,0,0,0-.2l-.05,0a.15.15,0,0,0-.2,0l-.51.51a.14.14,0,0,0,0,.2h0l.05,0a.15.15,0,0,0,.2,0Z"/><path class="cls-47" d="M129.64,39.32a.06.06,0,0,0,0-.08h0a.07.07,0,0,0-.09,0l-.23.22a.06.06,0,0,0,0,.08h0a.07.07,0,0,0,.09,0Z"/><path class="cls-46" d="M129.12,40a.17.17,0,0,0,.23,0l.06-.06a.16.16,0,0,0,0-.23h0l-.33-.33a.16.16,0,0,0-.23,0h0l-.06.06a.16.16,0,0,0,0,.23h0Z"/><path class="cls-47" d="M129.11,39.86a.07.07,0,0,0,.09,0h0a.06.06,0,0,0,0-.08h0l-.13-.13a.07.07,0,0,0-.1,0h0a.07.07,0,0,0,0,.09Z"/><path class="cls-46" d="M129.74,40.31a.15.15,0,0,0,0-.2l-.05,0a.15.15,0,0,0-.2,0l-.51.5a.14.14,0,0,0,0,.2h0l.05.06a.15.15,0,0,0,.2,0Z"/><path class="cls-47" d="M129.64,40.26a.07.07,0,0,0,0-.09h0a.06.06,0,0,0-.08,0h0l-.23.22a.07.07,0,0,0,0,.09h0a.06.06,0,0,0,.08,0h0Z"/><path class="cls-46" d="M129.12,41a.16.16,0,0,0,.23,0h0l.06-.06a.16.16,0,0,0,0-.23h0l-.33-.33a.17.17,0,0,0-.23,0l-.06.06a.16.16,0,0,0,0,.23h0Z"/><path class="cls-47" d="M129.11,40.8a.07.07,0,0,0,.09,0h0a.06.06,0,0,0,0-.08h0l-.13-.13a.06.06,0,0,0-.08,0l0,0h0a.06.06,0,0,0,0,.08h0Z"/><path class="cls-47" d="M129.64,41.21a.07.07,0,0,0,0-.09h0a.07.07,0,0,0-.09,0l-.23.22a.07.07,0,0,0,0,.09h0a.06.06,0,0,0,.08,0h0Z"/><path class="cls-46" d="M128.58,41.25a.14.14,0,0,0,0-.2h0l-.05,0a.14.14,0,0,0-.2,0h0l-.51.5a.13.13,0,0,0,0,.12h.43Z"/><path class="cls-46" d="M128.58,38.42a.14.14,0,0,0,0-.2h0l-.05,0a.15.15,0,0,0-.2,0l-.51.5a.14.14,0,0,0,0,.2h.05a.14.14,0,0,0,.2,0h0Z"/><path class="cls-47" d="M128.48,38.38a.06.06,0,0,0,0-.08h0a.07.07,0,0,0-.09,0l-.22.22a.06.06,0,0,0,0,.08h0a.06.06,0,0,0,.08,0h0Z"/><rect class="cls-46" x="127.73" y="38.39" width="0.41" height="0.79" rx="0.16" ry="0.16" transform="translate(10.05 101.83) rotate(-45)"/><path class="cls-47" d="M127.94,38.91a.07.07,0,0,0,.09,0h0a.06.06,0,0,0,0-.08h0l-.14-.13a.07.07,0,0,0-.09,0h0a.07.07,0,0,0,0,.09Z"/><path class="cls-46" d="M128.58,39.36a.14.14,0,0,0,0-.2h0l-.05,0a.15.15,0,0,0-.2,0l-.51.51a.14.14,0,0,0,0,.2h0l.05,0a.15.15,0,0,0,.2,0Z"/><path class="cls-47" d="M128.48,39.32a.06.06,0,0,0,0-.08h0a.07.07,0,0,0-.09,0l-.22.22a.06.06,0,0,0,0,.08h0a.07.07,0,0,0,.09,0Z"/><path class="cls-46" d="M128,40a.16.16,0,0,0,.23,0h0l.06-.06a.16.16,0,0,0,0-.23h0l-.33-.33a.16.16,0,0,0-.23,0h0l-.06.06a.16.16,0,0,0,0,.23h0Z"/><path class="cls-47" d="M127.94,39.86a.07.07,0,0,0,.09,0h0a.06.06,0,0,0,0-.08h0l-.14-.13a.06.06,0,0,0-.08,0h0a.07.07,0,0,0,0,.09Z"/><path class="cls-46" d="M128.58,40.31a.14.14,0,0,0,0-.2h0l-.05,0a.15.15,0,0,0-.2,0l-.51.5a.14.14,0,0,0,0,.2h0l.05.06a.15.15,0,0,0,.2,0Z"/><path class="cls-47" d="M128.48,40.26a.06.06,0,0,0,0-.08h0a.07.07,0,0,0-.09,0l-.22.22a.06.06,0,0,0,0,.08h0a.06.06,0,0,0,.08,0h0Z"/><path class="cls-46" d="M128,41a.16.16,0,0,0,.23,0h0l.06-.06a.16.16,0,0,0,0-.23h0l-.33-.33a.17.17,0,0,0-.23,0l-.06.06a.16.16,0,0,0,0,.23h0Z"/><path class="cls-47" d="M127.94,40.8a.07.07,0,0,0,.09,0h0a.06.06,0,0,0,0-.08h0l-.14-.13a.06.06,0,0,0-.08,0h0a.06.06,0,0,0,0,.08h0Z"/><path class="cls-47" d="M128.48,41.21a.06.06,0,0,0,0-.08h0a.07.07,0,0,0-.09,0l-.22.22a.06.06,0,0,0,0,.08h0a.06.06,0,0,0,.08,0h0Z"/><path class="cls-46" d="M127.41,41.25a.14.14,0,0,0,0-.2h0l-.05,0a.14.14,0,0,0-.2,0h0l-.51.5a.16.16,0,0,0,0,.12H127Z"/><path class="cls-46" d="M127.41,38.42a.14.14,0,0,0,0-.2h0l-.05,0a.14.14,0,0,0-.2,0h0l-.51.5a.15.15,0,0,0,0,.2h.05a.14.14,0,0,0,.2,0h0Z"/><path class="cls-47" d="M127.31,38.38a.06.06,0,0,0,0-.08h0a.06.06,0,0,0-.08,0h0l-.23.22a.06.06,0,0,0,0,.08h0a.06.06,0,0,0,.08,0h0Z"/><rect class="cls-46" x="126.57" y="38.39" width="0.41" height="0.79" rx="0.16" ry="0.16" transform="translate(9.7 100.99) rotate(-44.99)"/><path class="cls-47" d="M126.78,38.91a.07.07,0,0,0,.09,0h0a.07.07,0,0,0,0-.09l-.14-.13a.07.07,0,0,0-.09,0h0a.07.07,0,0,0,0,.09Z"/><path class="cls-46" d="M127.41,39.36a.14.14,0,0,0,0-.2h0l-.05,0a.15.15,0,0,0-.2,0l-.51.51a.14.14,0,0,0,0,.2h0l.05,0a.15.15,0,0,0,.2,0Z"/><path class="cls-47" d="M127.31,39.32a.06.06,0,0,0,0-.08h0a.06.06,0,0,0-.08,0h0l-.23.22a.06.06,0,0,0,0,.08h0a.07.07,0,0,0,.09,0Z"/><path class="cls-46" d="M126.79,40a.17.17,0,0,0,.23,0l.06-.06a.16.16,0,0,0,0-.23h0l-.33-.33a.16.16,0,0,0-.23,0h0l-.06.06a.16.16,0,0,0,0,.23h0Z"/><path class="cls-47" d="M126.78,39.86a.07.07,0,0,0,.09,0h0a.07.07,0,0,0,0-.09l-.14-.13a.06.06,0,0,0-.08,0h0a.07.07,0,0,0,0,.09Z"/><path class="cls-46" d="M127.41,40.31a.14.14,0,0,0,0-.2h0l-.05,0a.15.15,0,0,0-.2,0l-.51.5a.15.15,0,0,0,0,.2l.05.06a.15.15,0,0,0,.2,0Z"/><path class="cls-47" d="M127.31,40.26a.07.07,0,0,0,0-.09h0a.06.06,0,0,0-.08,0h0l-.23.22a.06.06,0,0,0,0,.08h0a.06.06,0,0,0,.08,0h0Z"/><path class="cls-46" d="M126.79,41a.16.16,0,0,0,.23,0h0l.06-.06a.16.16,0,0,0,0-.23h0l-.33-.33a.17.17,0,0,0-.23,0l-.06.06a.16.16,0,0,0,0,.23h0Z"/><path class="cls-47" d="M126.78,40.8a.07.07,0,0,0,.09,0h0a.07.07,0,0,0,0-.09l-.14-.13a.06.06,0,0,0-.08,0h0a.06.06,0,0,0,0,.08h0Z"/><path class="cls-47" d="M127.31,41.21a.07.07,0,0,0,0-.09h0a.07.07,0,0,0-.09,0l-.23.22a.06.06,0,0,0,0,.08h0a.06.06,0,0,0,.08,0h0Z"/><path class="cls-46" d="M126.25,41.25a.14.14,0,0,0,0-.2h0l-.05,0a.14.14,0,0,0-.2,0h0l-.51.5a.14.14,0,0,0,0,.12h.43Z"/><path class="cls-46" d="M126.25,38.42a.14.14,0,0,0,0-.2h0l-.05,0a.14.14,0,0,0-.2,0h0l-.51.5a.14.14,0,0,0,0,.2h.05a.14.14,0,0,0,.2,0h0Z"/><path class="cls-47" d="M126.15,38.38a.06.06,0,0,0,0-.08h0a.07.07,0,0,0-.09,0l-.22.22a.06.06,0,0,0,0,.08h0a.06.06,0,0,0,.08,0h0Z"/><path class="cls-46" d="M125.63,39.09a.16.16,0,0,0,.23,0h0l.06-.06a.16.16,0,0,0,0-.23h0l-.33-.33a.16.16,0,0,0-.23,0h0l-.06.06a.16.16,0,0,0,0,.23h0Z"/><path class="cls-47" d="M125.61,38.91a.07.07,0,0,0,.1,0h0a.07.07,0,0,0,0-.09l-.14-.13a.07.07,0,0,0-.1,0h0a.06.06,0,0,0,0,.08h0Z"/><path class="cls-46" d="M126.25,39.36a.14.14,0,0,0,0-.2h0l-.05,0a.15.15,0,0,0-.2,0l-.51.51a.14.14,0,0,0,0,.2h0l.05,0a.15.15,0,0,0,.2,0Z"/><path class="cls-47" d="M126.15,39.32a.06.06,0,0,0,0-.08h0a.07.07,0,0,0-.09,0l-.22.22a.06.06,0,0,0,0,.08h0a.06.06,0,0,0,.08,0h0Z"/><path class="cls-46" d="M125.63,40a.16.16,0,0,0,.23,0h0l.06-.06a.16.16,0,0,0,0-.23h0l-.33-.33a.16.16,0,0,0-.23,0h0l-.06.06a.16.16,0,0,0,0,.23h0Z"/><path class="cls-47" d="M125.61,39.86a.07.07,0,0,0,.1,0h0a.07.07,0,0,0,0-.09l-.14-.13a.07.07,0,0,0-.1,0h0a.06.06,0,0,0,0,.08h0Z"/><path class="cls-46" d="M126.25,40.31a.14.14,0,0,0,0-.2h0l-.05,0a.15.15,0,0,0-.2,0l-.51.5a.14.14,0,0,0,0,.2h0l.05.06a.15.15,0,0,0,.2,0Z"/><path class="cls-47" d="M126.15,40.26a.06.06,0,0,0,0-.08h0a.06.06,0,0,0-.08,0h0l-.22.22a.06.06,0,0,0,0,.08h0a.06.06,0,0,0,.08,0h0Z"/><path class="cls-46" d="M125.63,41a.16.16,0,0,0,.23,0h0l.06-.06a.16.16,0,0,0,0-.23h0l-.33-.33a.17.17,0,0,0-.23,0l-.06.06a.16.16,0,0,0,0,.23h0Z"/><path class="cls-47" d="M125.61,40.8a.08.08,0,0,0,.1,0h0a.07.07,0,0,0,0-.09l-.14-.13a.06.06,0,0,0-.08,0l0,0h0a.06.06,0,0,0,0,.08h0Z"/><path class="cls-47" d="M126.15,41.21a.06.06,0,0,0,0-.08h0a.07.07,0,0,0-.09,0l-.22.22a.06.06,0,0,0,0,.08h0a.06.06,0,0,0,.08,0h0Z"/><path class="cls-46" d="M125.09,41.25a.14.14,0,0,0,0-.2h0L125,41a.14.14,0,0,0-.2,0h0l-.51.5a.14.14,0,0,0,0,.12h.43Z"/><path class="cls-46" d="M125.09,38.42a.14.14,0,0,0,0-.2h0l-.05,0a.14.14,0,0,0-.2,0h0l-.51.5a.14.14,0,0,0,0,.2h.05a.14.14,0,0,0,.2,0h0Z"/><path class="cls-47" d="M125,38.38a.07.07,0,0,0,0-.09h0a.07.07,0,0,0-.09,0l-.22.22a.06.06,0,0,0,0,.08h0a.06.06,0,0,0,.08,0h0Z"/><path class="cls-46" d="M124.46,39.09a.17.17,0,0,0,.23,0l.06-.06a.16.16,0,0,0,0-.23h0l-.33-.33a.16.16,0,0,0-.23,0h0l-.06.06a.16.16,0,0,0,0,.23h0Z"/><path class="cls-47" d="M124.45,38.91a.07.07,0,0,0,.09,0h0a.06.06,0,0,0,0-.08h0l-.13-.13a.07.07,0,0,0-.1,0h0a.06.06,0,0,0,0,.08h0Z"/><path class="cls-46" d="M125.09,39.36a.14.14,0,0,0,0-.2h0l-.05,0a.15.15,0,0,0-.2,0l-.51.51a.14.14,0,0,0,0,.2h0l.05,0a.15.15,0,0,0,.2,0Z"/><path class="cls-47" d="M125,39.32a.07.07,0,0,0,0-.09h0a.07.07,0,0,0-.09,0l-.22.22a.06.06,0,0,0,0,.08h0a.07.07,0,0,0,.09,0Z"/><path class="cls-46" d="M124.46,40a.16.16,0,0,0,.23,0h0l.06-.06a.15.15,0,0,0,0-.21l0,0-.33-.33a.16.16,0,0,0-.23,0h0l-.06.06a.16.16,0,0,0,0,.23h0Z"/><path class="cls-47" d="M124.45,39.86a.07.07,0,0,0,.09,0h0a.06.06,0,0,0,0-.08h0l-.13-.13a.07.07,0,0,0-.1,0h0a.06.06,0,0,0,0,.08h0Z"/><path class="cls-46" d="M125.09,40.31a.14.14,0,0,0,0-.2h0l-.05,0a.14.14,0,0,0-.2,0h0l-.51.5a.14.14,0,0,0,0,.2h0l.05.06a.15.15,0,0,0,.2,0Z"/><path class="cls-47" d="M125,40.26a.07.07,0,0,0,0-.09h0a.06.06,0,0,0-.08,0h0l-.22.22a.06.06,0,0,0,0,.08h0a.06.06,0,0,0,.08,0h0Z"/><path class="cls-46" d="M124.46,41a.16.16,0,0,0,.23,0h0l.06-.06a.15.15,0,0,0,0-.21l0,0-.33-.33a.17.17,0,0,0-.23,0l-.06.06a.16.16,0,0,0,0,.23h0Z"/><path class="cls-47" d="M124.45,40.8a.07.07,0,0,0,.09,0h0a.06.06,0,0,0,0-.08h0l-.13-.13a.07.07,0,0,0-.1,0h0a.06.06,0,0,0,0,.08h0Z"/><path class="cls-47" d="M125,41.21a.07.07,0,0,0,0-.09h0a.07.07,0,0,0-.09,0l-.22.22a.06.06,0,0,0,0,.08h0a.06.06,0,0,0,.08,0h0Z"/><path class="cls-46" d="M123.92,41.25a.14.14,0,0,0,0-.2h0l-.05,0a.14.14,0,0,0-.2,0h0l-.51.5a.14.14,0,0,0,0,.12h.44Z"/><path class="cls-46" d="M123.92,38.42a.14.14,0,0,0,0-.2h0l-.05,0a.14.14,0,0,0-.2,0h0l-.51.5a.14.14,0,0,0,0,.2h.05a.14.14,0,0,0,.2,0h0Z"/><path class="cls-47" d="M123.83,38.38a.06.06,0,0,0,0-.08h0a.07.07,0,0,0-.09,0l-.22.22a.06.06,0,0,0,0,.08h0a.06.06,0,0,0,.08,0h0Z"/><path class="cls-46" d="M123.3,39.09a.16.16,0,0,0,.23,0h0l.06-.06a.16.16,0,0,0,0-.23h0l-.33-.33a.16.16,0,0,0-.23,0h0l-.06.06a.16.16,0,0,0,0,.23h0Z"/><path class="cls-47" d="M123.29,38.91a.07.07,0,0,0,.09,0h0a.07.07,0,0,0,0-.09l-.14-.13a.07.07,0,0,0-.09,0h0a.07.07,0,0,0,0,.09Z"/><path class="cls-46" d="M123.92,39.36a.14.14,0,0,0,0-.2h0l-.05,0a.15.15,0,0,0-.2,0l-.51.51a.14.14,0,0,0,0,.2h0l.05,0a.15.15,0,0,0,.2,0Z"/><path class="cls-47" d="M123.83,39.32a.06.06,0,0,0,0-.08h0a.07.07,0,0,0-.09,0l-.22.22a.06.06,0,0,0,0,.08h0a.07.07,0,0,0,.09,0Z"/><path class="cls-46" d="M123.3,40a.16.16,0,0,0,.23,0h0l.06-.06a.16.16,0,0,0,0-.23h0l-.33-.33a.16.16,0,0,0-.23,0h0l-.06.06a.16.16,0,0,0,0,.23h0Z"/><path class="cls-47" d="M123.29,39.86a.07.07,0,0,0,.09,0h0a.07.07,0,0,0,0-.09l-.14-.13a.06.06,0,0,0-.08,0h0a.07.07,0,0,0,0,.09Z"/><path class="cls-46" d="M123.92,40.31a.14.14,0,0,0,0-.2h0l-.05,0a.15.15,0,0,0-.2,0l-.51.5a.14.14,0,0,0,0,.2h0l.05.06a.15.15,0,0,0,.2,0Z"/><path class="cls-47" d="M123.83,40.26a.07.07,0,0,0,0-.09h0a.06.06,0,0,0-.08,0h0l-.22.22a.06.06,0,0,0,0,.08h0a.06.06,0,0,0,.08,0h0Z"/><path class="cls-46" d="M123.3,41a.16.16,0,0,0,.23,0h0l.06-.06a.16.16,0,0,0,0-.23h0l-.33-.33a.17.17,0,0,0-.23,0l-.06.06a.16.16,0,0,0,0,.23h0Z"/><path class="cls-47" d="M123.29,40.8a.07.07,0,0,0,.09,0h0a.07.07,0,0,0,0-.09l-.14-.13a.06.06,0,0,0-.08,0h0a.07.07,0,0,0,0,.09Z"/><path class="cls-47" d="M123.83,41.21a.07.07,0,0,0,0-.09h0a.07.07,0,0,0-.09,0l-.22.22a.06.06,0,0,0,0,.08h0a.06.06,0,0,0,.08,0h0Z"/><path class="cls-46" d="M122.76,41.25a.14.14,0,0,0,0-.2h0l-.05,0a.14.14,0,0,0-.2,0h0l-.51.5a.13.13,0,0,0,0,.12h.43Z"/><path class="cls-46" d="M122.76,38.42a.14.14,0,0,0,0-.2h0l-.05,0a.15.15,0,0,0-.2,0l-.51.5a.14.14,0,0,0,0,.2h.05a.14.14,0,0,0,.2,0h0Z"/><path class="cls-47" d="M122.66,38.38a.06.06,0,0,0,0-.08h0a.07.07,0,0,0-.09,0l-.22.22a.06.06,0,0,0,0,.08h0a.06.06,0,0,0,.08,0h0Z"/><path class="cls-46" d="M122.14,39.09a.16.16,0,0,0,.23,0h0l.06-.06a.16.16,0,0,0,0-.23h0l-.33-.33a.16.16,0,0,0-.23,0h0l-.06.06a.16.16,0,0,0,0,.23h0Z"/><path class="cls-47" d="M122.13,38.91a.07.07,0,0,0,.09,0h0a.07.07,0,0,0,0-.09l-.14-.13a.07.07,0,0,0-.1,0h0a.06.06,0,0,0,0,.08h0Z"/><path class="cls-46" d="M122.76,39.36a.14.14,0,0,0,0-.2h0l-.05,0a.15.15,0,0,0-.2,0l-.51.51a.13.13,0,0,0,0,.18l0,0,.05,0a.15.15,0,0,0,.2,0Z"/><path class="cls-47" d="M122.66,39.32a.06.06,0,0,0,0-.08h0a.07.07,0,0,0-.09,0l-.22.22a.06.06,0,0,0,0,.08h0a.06.06,0,0,0,.08,0h0Z"/><path class="cls-46" d="M122.14,40a.16.16,0,0,0,.23,0h0l.06-.06a.16.16,0,0,0,0-.23h0l-.33-.33a.16.16,0,0,0-.23,0h0l-.06.06a.16.16,0,0,0,0,.23h0Z"/><path class="cls-47" d="M122.13,39.86a.07.07,0,0,0,.09,0h0a.07.07,0,0,0,0-.09l-.14-.13a.07.07,0,0,0-.1,0h0a.06.06,0,0,0,0,.08h0Z"/><path class="cls-46" d="M122.76,40.31a.14.14,0,0,0,0-.2h0l-.05,0a.15.15,0,0,0-.2,0l-.51.5a.13.13,0,0,0,0,.18l0,0,.05.06a.15.15,0,0,0,.2,0Z"/><path class="cls-47" d="M122.66,40.26a.07.07,0,0,0,0-.09h0a.06.06,0,0,0-.08,0h0l-.22.22a.06.06,0,0,0,0,.08h0a.06.06,0,0,0,.08,0h0Z"/><path class="cls-46" d="M122.14,41a.16.16,0,0,0,.23,0h0l.06-.06a.16.16,0,0,0,0-.23h0l-.33-.33a.17.17,0,0,0-.23,0l-.06.06a.16.16,0,0,0,0,.23h0Z"/><path class="cls-47" d="M122.13,40.8a.07.07,0,0,0,.09,0h0a.07.07,0,0,0,0-.09l-.14-.13a.06.06,0,0,0-.08,0l0,0h0a.06.06,0,0,0,0,.08h0Z"/><path class="cls-47" d="M122.66,41.21a.07.07,0,0,0,0-.09h0a.07.07,0,0,0-.09,0l-.22.22a.06.06,0,0,0,0,.08h0a.06.06,0,0,0,.08,0h0Z"/><path class="cls-46" d="M140.21,41.25a.14.14,0,0,0,0-.2h0l-.05,0a.14.14,0,0,0-.2,0h0l-.51.5a.14.14,0,0,0,0,.12h.43Z"/><path class="cls-46" d="M140.21,38.42a.14.14,0,0,0,0-.2h0l-.05,0a.14.14,0,0,0-.2,0h0l-.51.5a.14.14,0,0,0,0,.2h.05a.14.14,0,0,0,.2,0h0Z"/><path class="cls-47" d="M140.11,38.38a.06.06,0,0,0,0-.08h0a.07.07,0,0,0-.09,0l-.23.22a.06.06,0,0,0,0,.08h0a.06.06,0,0,0,.08,0h0Z"/><rect class="cls-46" x="139.36" y="38.4" width="0.41" height="0.79" rx="0.16" ry="0.16" transform="translate(13.37 109.92) rotate(-44.94)"/><path class="cls-47" d="M139.57,38.91a.07.07,0,0,0,.1,0h0a.06.06,0,0,0,0-.08h0l-.13-.13a.07.07,0,0,0-.1,0h0a.07.07,0,0,0,0,.09Z"/><path class="cls-46" d="M140.21,39.36a.14.14,0,0,0,0-.2h0l-.05,0a.15.15,0,0,0-.2,0l-.51.51a.14.14,0,0,0,0,.2h0l.05,0a.14.14,0,0,0,.2,0h0Z"/><path class="cls-47" d="M140.11,39.32a.06.06,0,0,0,0-.08h0a.07.07,0,0,0-.09,0l-.23.22a.06.06,0,0,0,0,.08h0a.07.07,0,0,0,.09,0Z"/><path class="cls-46" d="M139.58,40a.17.17,0,0,0,.23,0l.06-.06a.16.16,0,0,0,0-.23h0l-.33-.33a.16.16,0,0,0-.23,0h0l-.06.06a.16.16,0,0,0,0,.23h0Z"/><path class="cls-47" d="M139.57,39.86a.07.07,0,0,0,.1,0h0a.06.06,0,0,0,0-.08h0l-.13-.13a.07.07,0,0,0-.1,0h0a.07.07,0,0,0,0,.09Z"/><path class="cls-46" d="M140.21,40.31a.14.14,0,0,0,0-.2h0l-.05,0a.15.15,0,0,0-.2,0l-.51.5a.14.14,0,0,0,0,.2h0l.05.06a.14.14,0,0,0,.2,0h0Z"/><path class="cls-47" d="M140.11,40.26a.06.06,0,0,0,0-.08h0a.06.06,0,0,0-.08,0h0l-.23.22a.06.06,0,0,0,0,.08h0a.06.06,0,0,0,.08,0h0Z"/><path class="cls-46" d="M139.58,41a.16.16,0,0,0,.23,0h0l.06-.06a.16.16,0,0,0,0-.23h0l-.33-.33a.17.17,0,0,0-.23,0l-.06.06a.16.16,0,0,0,0,.23h0Z"/><path class="cls-47" d="M139.57,40.8a.07.07,0,0,0,.1,0h0a.06.06,0,0,0,0-.08h0l-.13-.13a.06.06,0,0,0-.08,0l0,0h0a.07.07,0,0,0,0,.09Z"/><path class="cls-47" d="M140.11,41.21a.06.06,0,0,0,0-.08h0a.07.07,0,0,0-.09,0l-.23.22a.06.06,0,0,0,0,.08h0a.06.06,0,0,0,.08,0h0Z"/><path class="cls-46" d="M139,41.25a.14.14,0,0,0,0-.2h0v0a.14.14,0,0,0-.2,0h0l-.51.5a.14.14,0,0,0,0,.12h.44Z"/><path class="cls-46" d="M139,38.42a.14.14,0,0,0,0-.2h0l-.05,0a.14.14,0,0,0-.2,0h0l-.51.5a.14.14,0,0,0,0,.2h.05a.14.14,0,0,0,.2,0h0Z"/><path class="cls-47" d="M138.95,38.38a.06.06,0,0,0,0-.08h0a.06.06,0,0,0-.08,0h0l-.23.22a.06.06,0,0,0,0,.08h0a.06.06,0,0,0,.08,0h0Z"/><path class="cls-46" d="M138.42,39.09a.17.17,0,0,0,.23,0l.06-.06a.16.16,0,0,0,0-.23h0l-.33-.33a.16.16,0,0,0-.23,0h0l-.06.06a.15.15,0,0,0,0,.21l0,0Z"/><path class="cls-47" d="M138.41,38.91a.07.07,0,0,0,.1,0h0a.07.07,0,0,0,0-.09l-.14-.13a.07.07,0,0,0-.1,0h0a.06.06,0,0,0,0,.08h0Z"/><path class="cls-46" d="M139,39.36a.14.14,0,0,0,0-.2h0l-.05,0a.15.15,0,0,0-.2,0l-.51.51a.13.13,0,0,0,0,.18l0,0,.05,0a.15.15,0,0,0,.2,0Z"/><path class="cls-47" d="M138.95,39.32a.06.06,0,0,0,0-.08h0a.06.06,0,0,0-.08,0h0l-.23.22a.06.06,0,0,0,0,.08h0a.07.07,0,0,0,.09,0Z"/><path class="cls-46" d="M138.42,40a.16.16,0,0,0,.23,0h0l.06-.06a.16.16,0,0,0,0-.23h0l-.33-.33a.16.16,0,0,0-.23,0h0l-.06.06a.15.15,0,0,0,0,.21l0,0Z"/><path class="cls-47" d="M138.41,39.86a.07.07,0,0,0,.1,0h0a.07.07,0,0,0,0-.09l-.14-.13a.07.07,0,0,0-.1,0h0a.06.06,0,0,0,0,.08h0Z"/><path class="cls-46" d="M139,40.31a.14.14,0,0,0,0-.2h0l-.05,0a.15.15,0,0,0-.2,0l-.51.5a.13.13,0,0,0,0,.18l0,0,.05.06a.15.15,0,0,0,.2,0Z"/><path class="cls-47" d="M138.95,40.26a.06.06,0,0,0,0-.08h0a.06.06,0,0,0-.08,0h0l-.23.22a.07.07,0,0,0,0,.09h0a.06.06,0,0,0,.08,0h0Z"/><path class="cls-46" d="M138.42,41a.16.16,0,0,0,.23,0h0l.06-.06a.16.16,0,0,0,0-.23h0l-.33-.33a.17.17,0,0,0-.23,0l-.06.06a.16.16,0,0,0,0,.23h0Z"/><path class="cls-47" d="M138.41,40.8a.07.07,0,0,0,.1,0h0a.07.07,0,0,0,0-.09l-.14-.13a.06.06,0,0,0-.08,0l0,0h0a.06.06,0,0,0,0,.08h0Z"/><path class="cls-47" d="M138.95,41.21a.06.06,0,0,0,0-.08h0a.06.06,0,0,0-.08,0h0l-.23.22a.07.07,0,0,0,0,.09h0a.06.06,0,0,0,.08,0h0Z"/><path class="cls-46" d="M137.88,41.25a.14.14,0,0,0,0-.2h0l-.05,0a.14.14,0,0,0-.2,0h0l-.51.5a.14.14,0,0,0,0,.12h.43Z"/><path class="cls-46" d="M137.88,38.42a.14.14,0,0,0,0-.2h0l-.05,0a.14.14,0,0,0-.2,0h0l-.51.5a.14.14,0,0,0,0,.2h.05a.14.14,0,0,0,.2,0h0Z"/><path class="cls-47" d="M137.78,38.38a.06.06,0,0,0,0-.08h0a.07.07,0,0,0-.09,0l-.22.22a.06.06,0,0,0,0,.08h0a.06.06,0,0,0,.08,0h0Z"/><rect class="cls-46" x="137.03" y="38.39" width="0.41" height="0.79" rx="0.16" ry="0.16" transform="translate(12.77 108.4) rotate(-45)"/><path class="cls-47" d="M137.25,38.91a.07.07,0,0,0,.1,0h0a.06.06,0,0,0,0-.08h0l-.13-.13a.07.07,0,0,0-.1,0h0a.07.07,0,0,0,0,.09Z"/><path class="cls-46" d="M137.88,39.36a.14.14,0,0,0,0-.2h0l-.05,0a.15.15,0,0,0-.2,0l-.51.51a.14.14,0,0,0,0,.2h0l.05,0a.15.15,0,0,0,.2,0Z"/><path class="cls-47" d="M137.78,39.32a.06.06,0,0,0,0-.08h0a.07.07,0,0,0-.09,0l-.22.22a.06.06,0,0,0,0,.08h0a.07.07,0,0,0,.09,0Z"/><rect class="cls-46" x="137.04" y="39.34" width="0.41" height="0.79" rx="0.16" ry="0.16" transform="translate(12.1 108.68) rotate(-45)"/><path class="cls-47" d="M137.25,39.86a.07.07,0,0,0,.1,0h0a.06.06,0,0,0,0-.08h0l-.13-.13a.07.07,0,0,0-.1,0h0a.07.07,0,0,0,0,.09Z"/><path class="cls-46" d="M137.88,40.31a.14.14,0,0,0,0-.2h0l-.05,0a.15.15,0,0,0-.2,0l-.51.5a.14.14,0,0,0,0,.2h0l.05.06a.15.15,0,0,0,.2,0Z"/><path class="cls-47" d="M137.78,40.26a.06.06,0,0,0,0-.08h0a.06.06,0,0,0-.08,0h0l-.22.22a.06.06,0,0,0,0,.08h0a.06.06,0,0,0,.08,0h0Z"/><path class="cls-46" d="M137.26,41a.16.16,0,0,0,.23,0h0l.06-.06a.16.16,0,0,0,0-.23h0l-.33-.33a.17.17,0,0,0-.23,0l-.06.06a.16.16,0,0,0,0,.23h0Z"/><path class="cls-47" d="M137.25,40.8a.07.07,0,0,0,.1,0h0a.06.06,0,0,0,0-.08h0l-.13-.13a.07.07,0,0,0-.1,0h0a.07.07,0,0,0,0,.09Z"/><path class="cls-47" d="M137.78,41.21a.06.06,0,0,0,0-.08h0a.07.07,0,0,0-.09,0l-.22.22a.06.06,0,0,0,0,.08h0a.06.06,0,0,0,.08,0h0Z"/><path class="cls-46" d="M136.72,41.25a.15.15,0,0,0,0-.2l-.05,0a.14.14,0,0,0-.2,0h0l-.51.5a.13.13,0,0,0,0,.12h.43Z"/><path class="cls-46" d="M136.72,38.42a.15.15,0,0,0,0-.2l-.05,0a.15.15,0,0,0-.2,0l-.51.5a.14.14,0,0,0,0,.2H136a.14.14,0,0,0,.2,0h0Z"/><path class="cls-47" d="M136.62,38.38a.06.06,0,0,0,0-.08h0a.07.07,0,0,0-.09,0l-.23.22a.06.06,0,0,0,0,.08h0a.06.06,0,0,0,.08,0h0Z"/><path class="cls-46" d="M136.1,39.09a.17.17,0,0,0,.23,0l.06-.06a.16.16,0,0,0,0-.23h0l-.33-.33a.16.16,0,0,0-.23,0h0l-.06.06a.16.16,0,0,0,0,.23h0Z"/><path class="cls-47" d="M136.08,38.91a.07.07,0,0,0,.1,0h0a.06.06,0,0,0,0-.08h0l-.14-.13a.07.07,0,0,0-.09,0h0a.07.07,0,0,0,0,.09Z"/><path class="cls-46" d="M136.72,39.36a.15.15,0,0,0,0-.2l-.05,0a.15.15,0,0,0-.2,0l-.51.51a.14.14,0,0,0,0,.2h0l.05,0a.15.15,0,0,0,.2,0Z"/><path class="cls-47" d="M136.62,39.32a.06.06,0,0,0,0-.08h0a.07.07,0,0,0-.09,0l-.23.22a.06.06,0,0,0,0,.08h0a.07.07,0,0,0,.09,0Z"/><path class="cls-46" d="M136.1,40a.17.17,0,0,0,.23,0l.06-.06a.16.16,0,0,0,0-.23h0l-.33-.33a.16.16,0,0,0-.23,0h0l-.06.06a.16.16,0,0,0,0,.23h0Z"/><path class="cls-47" d="M136.08,39.86a.07.07,0,0,0,.1,0h0a.06.06,0,0,0,0-.08h0l-.14-.13a.06.06,0,0,0-.08,0h0a.07.07,0,0,0,0,.09Z"/><path class="cls-46" d="M136.72,40.31a.15.15,0,0,0,0-.2l-.05,0a.15.15,0,0,0-.2,0l-.51.5a.14.14,0,0,0,0,.2h0l.05.06a.15.15,0,0,0,.2,0Z"/><path class="cls-47" d="M136.62,40.26a.06.06,0,0,0,0-.08h0a.06.06,0,0,0-.08,0h0l-.23.22a.07.07,0,0,0,0,.09h0a.06.06,0,0,0,.08,0h0Z"/><path class="cls-46" d="M136.1,41a.16.16,0,0,0,.23,0h0l.06-.06a.16.16,0,0,0,0-.23h0l-.33-.33a.17.17,0,0,0-.23,0l-.06.06a.16.16,0,0,0,0,.23h0Z"/><path class="cls-47" d="M136.08,40.8a.07.07,0,0,0,.1,0h0a.06.06,0,0,0,0-.08h0l-.14-.13a.06.06,0,0,0-.08,0h0a.06.06,0,0,0,0,.08h0Z"/><path class="cls-47" d="M136.62,41.21a.06.06,0,0,0,0-.08h0a.07.07,0,0,0-.09,0l-.23.22a.06.06,0,0,0,0,.08h0a.06.06,0,0,0,.08,0h0Z"/><path class="cls-46" d="M135.56,41.25a.14.14,0,0,0,0-.2h0l-.06,0a.14.14,0,0,0-.2,0h0l-.51.5a.14.14,0,0,0,0,.12h.43Z"/><path class="cls-46" d="M135.56,38.42a.14.14,0,0,0,0-.2h0l-.05,0a.14.14,0,0,0-.2,0h0l-.51.5a.14.14,0,0,0,0,.2h.05a.14.14,0,0,0,.2,0h0Z"/><path class="cls-47" d="M135.46,38.38a.06.06,0,0,0,0-.08h0a.07.07,0,0,0-.09,0l-.22.22a.06.06,0,0,0,0,.08h0a.06.06,0,0,0,.08,0h0Z"/><path class="cls-46" d="M134.94,39.09a.16.16,0,0,0,.23,0h0l.06-.06a.16.16,0,0,0,0-.23h0l-.33-.33a.16.16,0,0,0-.23,0h0l-.06.06a.16.16,0,0,0,0,.23h0Z"/><path class="cls-47" d="M134.92,38.91a.07.07,0,0,0,.1,0h0a.06.06,0,0,0,0-.08h0l-.14-.13a.07.07,0,0,0-.1,0h0a.06.06,0,0,0,0,.08h0Z"/><path class="cls-46" d="M135.56,39.36a.14.14,0,0,0,0-.2h0l-.05,0a.15.15,0,0,0-.2,0l-.51.51a.14.14,0,0,0,0,.2h0l.05,0a.15.15,0,0,0,.2,0Z"/><path class="cls-47" d="M135.46,39.32a.06.06,0,0,0,0-.08h0a.07.07,0,0,0-.09,0l-.22.22a.06.06,0,0,0,0,.08h0a.06.06,0,0,0,.08,0h0Z"/><path class="cls-46" d="M134.94,40a.16.16,0,0,0,.23,0h0l.06-.06a.16.16,0,0,0,0-.23h0l-.33-.33a.16.16,0,0,0-.23,0h0l-.06.06a.16.16,0,0,0,0,.23h0Z"/><path class="cls-47" d="M134.92,39.86a.07.07,0,0,0,.1,0h0a.06.06,0,0,0,0-.08h0l-.14-.13a.07.07,0,0,0-.1,0h0a.06.06,0,0,0,0,.08h0Z"/><path class="cls-46" d="M135.56,40.31a.14.14,0,0,0,0-.2h0l-.05,0a.15.15,0,0,0-.2,0l-.51.5a.14.14,0,0,0,0,.2h0l.05.06a.15.15,0,0,0,.2,0Z"/><path class="cls-47" d="M135.46,40.26a.06.06,0,0,0,0-.08h0a.06.06,0,0,0-.08,0h0l-.22.22a.06.06,0,0,0,0,.08h0a.06.06,0,0,0,.08,0h0Z"/><path class="cls-46" d="M134.94,41a.16.16,0,0,0,.23,0h0l.06-.06a.16.16,0,0,0,0-.23h0l-.33-.33a.17.17,0,0,0-.23,0l-.06.06a.16.16,0,0,0,0,.23h0Z"/><path class="cls-47" d="M134.92,40.8a.07.07,0,0,0,.1,0h0a.06.06,0,0,0,0-.08h0l-.14-.13a.06.06,0,0,0-.08,0l0,0h0a.06.06,0,0,0,0,.08h0Z"/><path class="cls-47" d="M135.46,41.21a.06.06,0,0,0,0-.08h0a.07.07,0,0,0-.09,0l-.22.22a.06.06,0,0,0,0,.08h0a.06.06,0,0,0,.08,0h0Z"/><path class="cls-46" d="M134.39,41.25a.14.14,0,0,0,0-.2h0l-.05,0a.14.14,0,0,0-.2,0h0l-.51.5a.14.14,0,0,0,0,.12H134Z"/><path class="cls-46" d="M134.39,38.42a.14.14,0,0,0,0-.2h0l-.05,0a.14.14,0,0,0-.2,0h0l-.51.5a.14.14,0,0,0,0,.2h.05a.14.14,0,0,0,.2,0h0Z"/><path class="cls-47" d="M134.29,38.38a.06.06,0,0,0,0-.08h0a.06.06,0,0,0-.08,0h0l-.23.22a.06.06,0,0,0,0,.08h0a.06.06,0,0,0,.08,0h0Z"/><path class="cls-46" d="M133.77,39.09a.17.17,0,0,0,.23,0l.06-.06a.16.16,0,0,0,0-.23h0l-.33-.33a.16.16,0,0,0-.23,0h0l-.06.06a.16.16,0,0,0,0,.23h0Z"/><path class="cls-47" d="M133.76,38.91a.07.07,0,0,0,.1,0h0a.07.07,0,0,0,0-.09l-.14-.13a.07.07,0,0,0-.09,0h0a.06.06,0,0,0,0,.08h0Z"/><path class="cls-46" d="M134.39,39.36a.14.14,0,0,0,0-.2h0l-.05,0a.15.15,0,0,0-.2,0l-.51.51a.14.14,0,0,0,0,.2h0l.05,0a.15.15,0,0,0,.2,0Z"/><path class="cls-47" d="M134.29,39.32a.06.06,0,0,0,0-.08h0a.06.06,0,0,0-.08,0h0l-.23.22a.06.06,0,0,0,0,.08h0a.06.06,0,0,0,.08,0h0Z"/><path class="cls-46" d="M133.77,40a.16.16,0,0,0,.23,0h0l.06-.06a.16.16,0,0,0,0-.23h0l-.33-.33a.16.16,0,0,0-.23,0h0l-.06.06a.16.16,0,0,0,0,.23h0Z"/><path class="cls-47" d="M133.76,39.86a.07.07,0,0,0,.1,0h0a.07.07,0,0,0,0-.09l-.14-.13a.06.06,0,0,0-.08,0h0a.06.06,0,0,0,0,.08h0Z"/><path class="cls-46" d="M134.39,40.31a.14.14,0,0,0,0-.2h0l-.05,0a.15.15,0,0,0-.2,0l-.51.5a.14.14,0,0,0,0,.2h0l.05.06a.15.15,0,0,0,.2,0Z"/><path class="cls-47" d="M134.29,40.26a.06.06,0,0,0,0-.08h0a.06.06,0,0,0-.08,0h0l-.23.22a.06.06,0,0,0,0,.08h0a.06.06,0,0,0,.08,0h0Z"/><path class="cls-46" d="M133.77,41a.16.16,0,0,0,.23,0h0l.06-.06a.16.16,0,0,0,0-.23h0l-.33-.33a.17.17,0,0,0-.23,0l-.06.06a.16.16,0,0,0,0,.23h0Z"/><path class="cls-47" d="M133.76,40.8a.07.07,0,0,0,.1,0h0a.07.07,0,0,0,0-.09l-.14-.13a.06.06,0,0,0-.08,0h0a.06.06,0,0,0,0,.08h0Z"/><path class="cls-47" d="M134.29,41.21a.06.06,0,0,0,0-.08h0a.06.06,0,0,0-.08,0h0l-.23.22a.06.06,0,0,0,0,.08h0a.06.06,0,0,0,.08,0h0Z"/><path class="cls-46" d="M133.23,41.25a.14.14,0,0,0,0-.2h0l-.05,0a.14.14,0,0,0-.2,0h0l-.51.5a.13.13,0,0,0,0,.12h.43Z"/><path class="cls-46" d="M133.23,38.42a.14.14,0,0,0,0-.2h0l-.05,0a.14.14,0,0,0-.2,0h0l-.51.5a.14.14,0,0,0,0,.2h.05a.14.14,0,0,0,.2,0h0Z"/><path class="cls-47" d="M133.13,38.38a.06.06,0,0,0,0-.08h0a.07.07,0,0,0-.09,0l-.23.22a.06.06,0,0,0,0,.08h0a.06.06,0,0,0,.08,0h0Z"/><path class="cls-46" d="M132.61,39.09a.17.17,0,0,0,.23,0l.06-.06a.16.16,0,0,0,0-.23h0l-.33-.33a.16.16,0,0,0-.23,0h0l-.06.06a.16.16,0,0,0,0,.23h0Z"/><path class="cls-47" d="M132.6,38.91a.07.07,0,0,0,.09,0h0a.07.07,0,0,0,0-.09l-.14-.13a.07.07,0,0,0-.1,0h0a.07.07,0,0,0,0,.09Z"/><path class="cls-46" d="M133.23,39.36a.14.14,0,0,0,0-.2h0l-.05,0a.15.15,0,0,0-.2,0l-.51.51a.14.14,0,0,0,0,.2h0l.05,0a.14.14,0,0,0,.2,0h0Z"/><path class="cls-47" d="M133.13,39.32a.06.06,0,0,0,0-.08h0a.07.07,0,0,0-.09,0l-.23.22a.06.06,0,0,0,0,.08h0a.06.06,0,0,0,.08,0h0Z"/><path class="cls-46" d="M132.61,40a.16.16,0,0,0,.23,0h0l.06-.06a.16.16,0,0,0,0-.23h0l-.33-.33a.16.16,0,0,0-.23,0h0l-.06.06a.16.16,0,0,0,0,.23h0Z"/><path class="cls-47" d="M132.6,39.86a.07.07,0,0,0,.09,0h0a.07.07,0,0,0,0-.09l-.14-.13a.07.07,0,0,0-.1,0h0a.07.07,0,0,0,0,.09Z"/><path class="cls-46" d="M133.23,40.31a.14.14,0,0,0,0-.2h0l-.05,0a.14.14,0,0,0-.2,0h0l-.51.5a.14.14,0,0,0,0,.2h0l.05.06a.14.14,0,0,0,.2,0h0Z"/><path class="cls-47" d="M133.13,40.26a.07.07,0,0,0,0-.09h0a.07.07,0,0,0-.09,0l-.23.22a.07.07,0,0,0,0,.09h0a.06.06,0,0,0,.08,0h0Z"/><path class="cls-46" d="M132.61,41a.16.16,0,0,0,.23,0h0l.06-.06a.16.16,0,0,0,0-.23h0l-.33-.33a.17.17,0,0,0-.23,0l-.06.06a.16.16,0,0,0,0,.23h0Z"/><path class="cls-47" d="M132.6,40.8a.07.07,0,0,0,.09,0h0a.07.07,0,0,0,0-.09l-.14-.13a.06.06,0,0,0-.08,0l0,0h0a.06.06,0,0,0,0,.08h0Z"/><path class="cls-47" d="M133.13,41.21a.07.07,0,0,0,0-.09h0a.07.07,0,0,0-.09,0l-.23.22a.06.06,0,0,0,0,.08h0a.06.06,0,0,0,.08,0h0Z"/><path class="cls-46" d="M132.07,41.25a.14.14,0,0,0,0-.2h0L132,41a.14.14,0,0,0-.2,0h0l-.51.5a.14.14,0,0,0,0,.12h.43Z"/><path class="cls-46" d="M132.07,38.42a.14.14,0,0,0,0-.2h0l-.05,0a.14.14,0,0,0-.2,0h0l-.51.5a.14.14,0,0,0,0,.2h.05a.14.14,0,0,0,.2,0h0Z"/><path class="cls-47" d="M132,38.38a.06.06,0,0,0,0-.08h0a.07.07,0,0,0-.09,0l-.23.22a.06.06,0,0,0,0,.08h0a.06.06,0,0,0,.08,0h0Z"/><path class="cls-46" d="M131.44,39.09a.16.16,0,0,0,.23,0h0l.06-.06a.16.16,0,0,0,0-.23h0l-.33-.33a.16.16,0,0,0-.23,0h0l-.06.06a.16.16,0,0,0,0,.23h0Z"/><path class="cls-47" d="M131.43,38.91a.07.07,0,0,0,.1,0h0a.06.06,0,0,0,0-.08h0l-.14-.13a.07.07,0,0,0-.09,0h0a.07.07,0,0,0,0,.09Z"/><path class="cls-46" d="M132.07,39.36a.14.14,0,0,0,0-.2h0l-.05,0a.15.15,0,0,0-.2,0l-.51.51a.14.14,0,0,0,0,.2h0l.05,0a.15.15,0,0,0,.2,0Z"/><path class="cls-47" d="M132,39.32a.06.06,0,0,0,0-.08h0a.07.07,0,0,0-.09,0l-.23.22a.06.06,0,0,0,0,.08h0a.07.07,0,0,0,.09,0Z"/><path class="cls-46" d="M131.44,40a.16.16,0,0,0,.23,0h0l.06-.06a.16.16,0,0,0,0-.23h0l-.33-.33a.16.16,0,0,0-.23,0h0l-.06.06a.16.16,0,0,0,0,.23h0Z"/><path class="cls-47" d="M131.43,39.86a.07.07,0,0,0,.1,0h0a.06.06,0,0,0,0-.08h0l-.14-.13a.06.06,0,0,0-.08,0h0a.07.07,0,0,0,0,.09Z"/><path class="cls-46" d="M132.07,40.31a.14.14,0,0,0,0-.2h0l-.05,0a.15.15,0,0,0-.2,0l-.51.5a.14.14,0,0,0,0,.2h0l.05.06a.15.15,0,0,0,.2,0Z"/><path class="cls-47" d="M132,40.26a.06.06,0,0,0,0-.08h0a.06.06,0,0,0-.08,0h0l-.23.22a.06.06,0,0,0,0,.08h0a.06.06,0,0,0,.08,0h0Z"/><path class="cls-46" d="M131.44,41a.16.16,0,0,0,.23,0h0l.06-.06a.16.16,0,0,0,0-.23h0l-.33-.33a.17.17,0,0,0-.23,0l-.06.06a.16.16,0,0,0,0,.23h0Z"/><path class="cls-47" d="M131.43,40.8a.07.07,0,0,0,.1,0h0a.06.06,0,0,0,0-.08h0l-.14-.13a.06.06,0,0,0-.08,0h0a.06.06,0,0,0,0,.08h0Z"/><path class="cls-47" d="M132,41.21a.06.06,0,0,0,0-.08h0a.07.07,0,0,0-.09,0l-.23.22a.06.06,0,0,0,0,.08h0a.06.06,0,0,0,.08,0h0Z"/><path class="cls-46" d="M149.51,41.25a.14.14,0,0,0,0-.2h0l-.05,0a.14.14,0,0,0-.2,0h0l-.51.5a.13.13,0,0,0,0,.12h.43Z"/><path class="cls-46" d="M149.51,38.42a.14.14,0,0,0,0-.2h0l-.05,0a.15.15,0,0,0-.2,0l-.51.5a.14.14,0,0,0,0,.2h.05a.14.14,0,0,0,.2,0h0Z"/><path class="cls-47" d="M149.42,38.38a.06.06,0,0,0,0-.08h0a.07.07,0,0,0-.09,0l-.23.22a.06.06,0,0,0,0,.08h0a.06.06,0,0,0,.08,0h0Z"/><path class="cls-46" d="M148.89,39.09a.17.17,0,0,0,.23,0l.06-.06a.16.16,0,0,0,0-.23h0l-.33-.33a.16.16,0,0,0-.23,0h0l-.06.06a.16.16,0,0,0,0,.23h0Z"/><path class="cls-47" d="M148.88,38.91a.07.07,0,0,0,.09,0h0a.07.07,0,0,0,0-.09l-.14-.13a.07.07,0,0,0-.09,0h0a.06.06,0,0,0,0,.08h0Z"/><path class="cls-46" d="M149.51,39.36a.14.14,0,0,0,0-.2h0l-.05,0a.15.15,0,0,0-.2,0l-.51.51a.14.14,0,0,0,0,.2h0l.05,0a.15.15,0,0,0,.2,0Z"/><path class="cls-47" d="M149.42,39.32a.06.06,0,0,0,0-.08h0a.07.07,0,0,0-.09,0l-.23.22a.06.06,0,0,0,0,.08h0a.06.06,0,0,0,.08,0h0Z"/><path class="cls-46" d="M148.89,40a.17.17,0,0,0,.23,0l.06-.06a.16.16,0,0,0,0-.23h0l-.33-.33a.16.16,0,0,0-.23,0h0l-.06.06a.16.16,0,0,0,0,.23h0Z"/><path class="cls-47" d="M148.88,39.86a.07.07,0,0,0,.09,0h0a.07.07,0,0,0,0-.09l-.14-.13a.06.06,0,0,0-.08,0h0a.06.06,0,0,0,0,.08h0Z"/><path class="cls-46" d="M149.51,40.31a.14.14,0,0,0,0-.2h0l-.05,0a.15.15,0,0,0-.2,0l-.51.5a.14.14,0,0,0,0,.2h0l.05.06a.15.15,0,0,0,.2,0Z"/><path class="cls-47" d="M149.42,40.26a.06.06,0,0,0,0-.08h0a.06.06,0,0,0-.08,0h0l-.23.22a.07.07,0,0,0,0,.09h0a.06.06,0,0,0,.08,0h0Z"/><path class="cls-46" d="M148.89,41a.16.16,0,0,0,.23,0h0l.06-.06a.16.16,0,0,0,0-.23h0l-.33-.33a.16.16,0,0,0-.23,0h0l-.06.06a.16.16,0,0,0,0,.23h0Z"/><path class="cls-47" d="M148.88,40.8a.07.07,0,0,0,.09,0h0a.07.07,0,0,0,0-.09l-.14-.13a.06.06,0,0,0-.08,0h0a.06.06,0,0,0,0,.08h0Z"/><path class="cls-47" d="M149.42,41.21a.06.06,0,0,0,0-.08h0a.07.07,0,0,0-.09,0l-.23.22a.07.07,0,0,0,0,.09h0a.06.06,0,0,0,.08,0h0Z"/><path class="cls-46" d="M150.68,41.25a.14.14,0,0,0,0-.2h0l-.05,0a.15.15,0,0,0-.21,0l-.51.5a.15.15,0,0,0,0,.12h.43Z"/><path class="cls-46" d="M150.68,38.42a.14.14,0,0,0,0-.2h0l-.05,0a.15.15,0,0,0-.21,0l-.51.5a.15.15,0,0,0,0,.2H150a.14.14,0,0,0,.2,0h0Z"/><path class="cls-47" d="M150.58,38.38a.06.06,0,0,0,0-.08h0a.07.07,0,0,0-.09,0l-.22.22a.06.06,0,0,0,0,.08h0a.06.06,0,0,0,.08,0h0Z"/><path class="cls-46" d="M150.05,39.09a.17.17,0,0,0,.23,0l.06-.06a.16.16,0,0,0,0-.23h0l-.33-.33a.17.17,0,0,0-.23,0l-.06.06a.16.16,0,0,0,0,.23h0Z"/><path class="cls-47" d="M150,38.91a.07.07,0,0,0,.1,0h0a.07.07,0,0,0,0-.09l-.14-.13a.07.07,0,0,0-.09,0h0a.06.06,0,0,0,0,.08h0Z"/><path class="cls-46" d="M150.68,39.36a.14.14,0,0,0,0-.2h0l-.05,0a.16.16,0,0,0-.21,0l-.51.51a.14.14,0,0,0,0,.2h0l.06,0a.14.14,0,0,0,.2,0h0Z"/><path class="cls-47" d="M150.58,39.32a.06.06,0,0,0,0-.08h0a.07.07,0,0,0-.09,0l-.22.22a.06.06,0,0,0,0,.08h0a.07.07,0,0,0,.09,0Z"/><path class="cls-46" d="M150.05,40a.16.16,0,0,0,.23,0h0l.06-.06a.16.16,0,0,0,0-.23h0l-.33-.33a.16.16,0,0,0-.23,0h0l-.06.06a.16.16,0,0,0,0,.23h0Z"/><path class="cls-47" d="M150,39.86a.07.07,0,0,0,.1,0h0a.07.07,0,0,0,0-.09l-.1-.17a.06.06,0,0,0-.08,0h0a.06.06,0,0,0,0,.08h0Z"/><path class="cls-46" d="M151.69,39.36a.15.15,0,0,0,0-.2l-.05,0a.15.15,0,0,0-.2,0l-.51.51a.14.14,0,0,0,0,.2h0l.05,0a.15.15,0,0,0,.2,0Z"/><path class="cls-47" d="M151.59,39.32a.06.06,0,0,0,0-.08h0a.07.07,0,0,0-.09,0l-.22.22a.06.06,0,0,0,0,.08h0a.07.07,0,0,0,.09,0Z"/><path class="cls-46" d="M151.07,40a.16.16,0,0,0,.23,0h0l.06-.06a.16.16,0,0,0,0-.23h0l-.33-.33a.16.16,0,0,0-.23,0h0l-.06.06a.16.16,0,0,0,0,.23h0Z"/><path class="cls-47" d="M151.05,39.86a.07.07,0,0,0,.1,0h0a.07.07,0,0,0,0-.09L151,39.6a.06.06,0,0,0-.08,0h0a.06.06,0,0,0,0,.08h0Z"/><path class="cls-46" d="M150.68,40.31a.14.14,0,0,0,0-.2h0l-.05,0a.15.15,0,0,0-.21,0l-.51.5a.15.15,0,0,0,0,.2l.06.06a.14.14,0,0,0,.2,0h0Z"/><path class="cls-47" d="M150.58,40.26a.06.06,0,0,0,0-.08h0a.06.06,0,0,0-.08,0h0l-.22.22a.06.06,0,0,0,0,.08h0a.06.06,0,0,0,.08,0h0Z"/><path class="cls-46" d="M150.05,41a.16.16,0,0,0,.23,0h0l.06-.06a.16.16,0,0,0,0-.23h0l-.33-.33a.17.17,0,0,0-.23,0l-.06.06a.16.16,0,0,0,0,.23h0Z"/><path class="cls-47" d="M150,40.8a.07.07,0,0,0,.1,0h0a.07.07,0,0,0,0-.09l-.14-.13a.06.06,0,0,0-.08,0h0a.06.06,0,0,0,0,.08h0Z"/><path class="cls-46" d="M151.69,40.31a.14.14,0,0,0,0-.2h0l-.05,0a.15.15,0,0,0-.2,0l-.51.5a.14.14,0,0,0,0,.2h0l.05.06a.15.15,0,0,0,.2,0Z"/><path class="cls-47" d="M151.59,40.26a.06.06,0,0,0,0-.08h0a.06.06,0,0,0-.08,0h0l-.22.22a.06.06,0,0,0,0,.08h0a.06.06,0,0,0,.08,0h0Z"/><path class="cls-46" d="M151.07,41a.16.16,0,0,0,.23,0h0l.06-.06a.16.16,0,0,0,0-.23h0l-.33-.33a.17.17,0,0,0-.23,0l-.06.06a.16.16,0,0,0,0,.23h0Z"/><path class="cls-47" d="M151.05,40.8a.07.07,0,0,0,.1,0h0a.07.07,0,0,0,0-.09l-.14-.13a.06.06,0,0,0-.08,0h0a.06.06,0,0,0,0,.08h0Z"/><path class="cls-47" d="M150.58,41.21a.06.06,0,0,0,0-.08h0a.07.07,0,0,0-.09,0l-.22.22a.06.06,0,0,0,0,.08h0a.07.07,0,0,0,.09,0Z"/><path class="cls-46" d="M148.35,41.25a.14.14,0,0,0,0-.2h0l-.05,0a.14.14,0,0,0-.2,0h0l-.51.5a.13.13,0,0,0,0,.12H148Z"/><path class="cls-46" d="M148.35,38.42a.14.14,0,0,0,0-.2h0l-.05,0a.15.15,0,0,0-.2,0l-.51.5a.15.15,0,0,0,0,.2h.05a.14.14,0,0,0,.2,0h0Z"/><path class="cls-47" d="M148.25,38.38a.06.06,0,0,0,0-.08h0a.07.07,0,0,0-.09,0l-.23.22a.06.06,0,0,0,0,.08h0a.06.06,0,0,0,.08,0h0Z"/><path class="cls-46" d="M147.73,39.09a.17.17,0,0,0,.23,0l0-.09a.16.16,0,0,0,0-.23h0l-.33-.33a.16.16,0,0,0-.23,0h0l-.06.06a.16.16,0,0,0,0,.23h0Z"/><path class="cls-47" d="M147.71,38.91a.07.07,0,0,0,.1,0h0a.06.06,0,0,0,0-.08h0l-.13-.13a.07.07,0,0,0-.09,0h0a.07.07,0,0,0,0,.09Z"/><path class="cls-46" d="M148.35,39.36a.14.14,0,0,0,0-.2h0l-.05,0a.15.15,0,0,0-.2,0l-.51.51a.14.14,0,0,0,0,.2h0l.05,0a.15.15,0,0,0,.2,0Z"/><path class="cls-47" d="M148.25,39.32a.06.06,0,0,0,0-.08h0a.07.07,0,0,0-.09,0l-.23.22a.06.06,0,0,0,0,.08h0a.06.06,0,0,0,.08,0h0Z"/><path class="cls-46" d="M147.73,40a.16.16,0,0,0,.23,0h0a.16.16,0,0,0,0-.23h0l-.33-.33a.16.16,0,0,0-.23,0h0l-.06.06a.16.16,0,0,0,0,.23h0Z"/><path class="cls-47" d="M147.71,39.86a.07.07,0,0,0,.1,0h0a.06.06,0,0,0,0-.08h0l-.13-.13a.06.06,0,0,0-.08,0h0a.07.07,0,0,0,0,.09Z"/><path class="cls-46" d="M148.35,40.31a.14.14,0,0,0,0-.2h0l-.05,0a.15.15,0,0,0-.2,0l-.51.5a.15.15,0,0,0,0,.2l.05.06a.15.15,0,0,0,.2,0Z"/><path class="cls-47" d="M148.25,40.26a.06.06,0,0,0,0-.08h0a.06.06,0,0,0-.08,0h0l-.23.22a.07.07,0,0,0,0,.09h0a.06.06,0,0,0,.08,0h0Z"/><path class="cls-46" d="M147.73,41a.16.16,0,0,0,.23,0h0l.06-.06a.16.16,0,0,0,0-.23h0l-.33-.33a.17.17,0,0,0-.23,0l-.06.06a.16.16,0,0,0,0,.23h0Z"/><path class="cls-47" d="M147.71,40.8a.07.07,0,0,0,.1,0h0a.06.06,0,0,0,0-.08h0l-.13-.13a.06.06,0,0,0-.08,0h0a.06.06,0,0,0,0,.08h0Z"/><path class="cls-47" d="M148.25,41.21a.06.06,0,0,0,0-.08h0a.07.07,0,0,0-.09,0l-.23.22a.07.07,0,0,0,0,.09h0a.06.06,0,0,0,.08,0h0Z"/><path class="cls-46" d="M147.19,41.25a.15.15,0,0,0,0-.2l-.05,0a.14.14,0,0,0-.2,0h0l-.51.5a.13.13,0,0,0,0,.12h.43Z"/><path class="cls-46" d="M147.19,38.42a.15.15,0,0,0,0-.2l-.05,0a.15.15,0,0,0-.2,0l-.51.5a.14.14,0,0,0,0,.2h.05a.14.14,0,0,0,.2,0h0Z"/><path class="cls-47" d="M147.09,38.38a.06.06,0,0,0,0-.08h0a.06.06,0,0,0-.08,0h0l-.23.22a.06.06,0,0,0,0,.08h0a.06.06,0,0,0,.08,0h0Z"/><path class="cls-46" d="M146.56,39.09a.17.17,0,0,0,.23,0l.06-.06a.16.16,0,0,0,0-.23h0l-.33-.33a.16.16,0,0,0-.23,0h0l-.06.06a.16.16,0,0,0,0,.23h0Z"/><path class="cls-47" d="M146.55,38.91a.07.07,0,0,0,.09,0h0a.07.07,0,0,0,0-.09l-.14-.13a.07.07,0,0,0-.1,0h0a.06.06,0,0,0,0,.08h0Z"/><path class="cls-46" d="M147.19,39.36a.15.15,0,0,0,0-.2l-.05,0a.15.15,0,0,0-.2,0l-.51.51a.14.14,0,0,0,0,.2h0l.05,0a.15.15,0,0,0,.2,0Z"/><path class="cls-47" d="M147.09,39.32a.06.06,0,0,0,0-.08h0a.06.06,0,0,0-.08,0h0l-.23.22a.06.06,0,0,0,0,.08h0a.07.07,0,0,0,.09,0Z"/><path class="cls-46" d="M146.56,40a.16.16,0,0,0,.23,0h0l.06-.06a.16.16,0,0,0,0-.23h0l-.33-.33a.16.16,0,0,0-.23,0h0l-.06.06a.16.16,0,0,0,0,.23h0Z"/><path class="cls-47" d="M146.55,39.86a.07.07,0,0,0,.09,0h0a.07.07,0,0,0,0-.09l-.14-.13a.07.07,0,0,0-.1,0h0a.06.06,0,0,0,0,.08h0Z"/><path class="cls-46" d="M147.19,40.31a.15.15,0,0,0,0-.2l-.05,0a.15.15,0,0,0-.2,0l-.51.5a.14.14,0,0,0,0,.2h0l.05.06a.15.15,0,0,0,.2,0Z"/><path class="cls-47" d="M147.09,40.26a.06.06,0,0,0,0-.08h0a.06.06,0,0,0-.08,0h0l-.23.22a.07.07,0,0,0,0,.09h0a.06.06,0,0,0,.08,0h0Z"/><path class="cls-46" d="M146.56,41a.16.16,0,0,0,.23,0h0l.06-.06a.16.16,0,0,0,0-.23h0l-.33-.33a.16.16,0,0,0-.23,0h0l-.06.06a.16.16,0,0,0,0,.23h0Z"/><path class="cls-47" d="M146.55,40.8a.07.07,0,0,0,.09,0h0a.07.07,0,0,0,0-.09l-.14-.13a.06.06,0,0,0-.08,0l0,0h0a.06.06,0,0,0,0,.08h0Z"/><path class="cls-47" d="M147.09,41.21a.06.06,0,0,0,0-.08h0a.07.07,0,0,0-.09,0l-.23.22a.07.07,0,0,0,0,.09h0a.07.07,0,0,0,.09,0Z"/><path class="cls-46" d="M146,41.25a.14.14,0,0,0,0-.2h0v0a.14.14,0,0,0-.2,0h0l-.51.5a.14.14,0,0,0,0,.12h.44Z"/><path class="cls-46" d="M146,38.42a.14.14,0,0,0,0-.2h0l-.05,0a.14.14,0,0,0-.2,0h0l-.51.5a.14.14,0,0,0,0,.2h.05a.14.14,0,0,0,.2,0h0Z"/><path class="cls-47" d="M145.93,38.38a.06.06,0,0,0,0-.08h0a.06.06,0,0,0-.08,0h0l-.23.22a.06.06,0,0,0,0,.08h0a.06.06,0,0,0,.08,0h0Z"/><path class="cls-46" d="M145.4,39.09a.17.17,0,0,0,.23,0l.06-.06a.16.16,0,0,0,0-.23h0l-.33-.33a.16.16,0,0,0-.23,0h0l-.06.06a.16.16,0,0,0,0,.23h0Z"/><path class="cls-47" d="M145.39,38.91a.07.07,0,0,0,.1,0h0a.07.07,0,0,0,0-.09l-.14-.13a.07.07,0,0,0-.1,0h0a.06.06,0,0,0,0,.08h0Z"/><path class="cls-46" d="M146,39.36a.14.14,0,0,0,0-.2h0l-.05,0a.15.15,0,0,0-.2,0l-.51.51a.14.14,0,0,0,0,.2h0l.05,0a.15.15,0,0,0,.2,0Z"/><path class="cls-47" d="M145.93,39.32a.06.06,0,0,0,0-.08h0a.06.06,0,0,0-.08,0h0l-.23.22a.06.06,0,0,0,0,.08h0a.07.07,0,0,0,.09,0Z"/><path class="cls-46" d="M145.4,40a.16.16,0,0,0,.23,0h0l.06-.06a.16.16,0,0,0,0-.23h0l-.33-.33a.16.16,0,0,0-.23,0h0l-.06.06a.16.16,0,0,0,0,.23h0Z"/><path class="cls-47" d="M145.39,39.86a.07.07,0,0,0,.1,0h0a.07.07,0,0,0,0-.09l-.14-.13a.07.07,0,0,0-.1,0h0a.06.06,0,0,0,0,.08h0Z"/><path class="cls-46" d="M146,40.31a.14.14,0,0,0,0-.2h0l-.05,0a.14.14,0,0,0-.2,0h0l-.51.5a.14.14,0,0,0,0,.2h0l.05.06a.15.15,0,0,0,.2,0Z"/><path class="cls-47" d="M145.93,40.26a.06.06,0,0,0,0-.08h0a.06.06,0,0,0-.08,0h0l-.23.22a.06.06,0,0,0,0,.08h0a.06.06,0,0,0,.08,0h0Z"/><path class="cls-46" d="M145.4,41a.16.16,0,0,0,.23,0h0l.06-.06a.16.16,0,0,0,0-.23h0l-.33-.33a.17.17,0,0,0-.23,0l-.06.06a.16.16,0,0,0,0,.23h0Z"/><path class="cls-47" d="M145.39,40.8a.07.07,0,0,0,.1,0h0a.07.07,0,0,0,0-.09l-.14-.13a.07.07,0,0,0-.1,0h0a.06.06,0,0,0,0,.08h0Z"/><path class="cls-47" d="M145.93,41.21a.06.06,0,0,0,0-.08h0a.07.07,0,0,0-.09,0l-.23.22a.06.06,0,0,0,0,.08h0a.07.07,0,0,0,.09,0Z"/><path class="cls-46" d="M144.86,41.25a.15.15,0,0,0,0-.2l-.06,0a.14.14,0,0,0-.2,0h0l-.51.5a.14.14,0,0,0,0,.12h.43Z"/><path class="cls-46" d="M144.86,38.42a.15.15,0,0,0,0-.2l-.06,0a.14.14,0,0,0-.2,0h0l-.51.5a.14.14,0,0,0,0,.2h.05a.14.14,0,0,0,.2,0h0Z"/><path class="cls-47" d="M144.76,38.38a.06.06,0,0,0,0-.08h0a.07.07,0,0,0-.09,0l-.23.22a.06.06,0,0,0,0,.08h0a.06.06,0,0,0,.08,0h0Z"/><path class="cls-46" d="M144.24,39.09a.17.17,0,0,0,.23,0l.06-.06a.16.16,0,0,0,0-.23h0l-.33-.33a.16.16,0,0,0-.23,0h0l-.06.06a.16.16,0,0,0,0,.23h0Z"/><path class="cls-47" d="M144.22,38.91a.07.07,0,0,0,.1,0h0a.06.06,0,0,0,0-.08h0l-.13-.13a.07.07,0,0,0-.1,0h0a.07.07,0,0,0,0,.09Z"/><path class="cls-46" d="M144.86,39.36a.15.15,0,0,0,0-.2l-.06,0a.15.15,0,0,0-.2,0l-.51.51a.14.14,0,0,0,0,.2h0l.05,0a.15.15,0,0,0,.2,0Z"/><path class="cls-47" d="M144.76,39.32a.06.06,0,0,0,0-.08h0a.07.07,0,0,0-.09,0l-.23.22a.06.06,0,0,0,0,.08h0a.07.07,0,0,0,.09,0Z"/><path class="cls-46" d="M144.24,40a.17.17,0,0,0,.23,0l.06-.06a.16.16,0,0,0,0-.23h0l-.33-.33a.16.16,0,0,0-.23,0h0l-.06.06a.16.16,0,0,0,0,.23h0Z"/><path class="cls-47" d="M144.22,39.86a.07.07,0,0,0,.1,0h0a.06.06,0,0,0,0-.08h0l-.13-.13a.07.07,0,0,0-.1,0h0a.07.07,0,0,0,0,.09Z"/><path class="cls-46" d="M144.86,40.31a.15.15,0,0,0,0-.2l-.06,0a.15.15,0,0,0-.2,0l-.51.5a.14.14,0,0,0,0,.2h0l.05.06a.15.15,0,0,0,.2,0Z"/><path class="cls-47" d="M144.76,40.26a.06.06,0,0,0,0-.08h0a.06.06,0,0,0-.08,0h0l-.23.22a.07.07,0,0,0,0,.09h0a.06.06,0,0,0,.08,0h0Z"/><path class="cls-46" d="M144.24,41a.16.16,0,0,0,.23,0h0l.06-.06a.16.16,0,0,0,0-.23h0l-.33-.33a.17.17,0,0,0-.23,0l-.06.06a.16.16,0,0,0,0,.23h0Z"/><path class="cls-47" d="M144.22,40.8a.07.07,0,0,0,.1,0h0a.06.06,0,0,0,0-.08h0l-.13-.13a.06.06,0,0,0-.08,0l0,0h0a.06.06,0,0,0,0,.08h0Z"/><path class="cls-47" d="M144.76,41.21a.06.06,0,0,0,0-.08h0a.07.07,0,0,0-.09,0l-.23.22a.06.06,0,0,0,0,.08h0a.07.07,0,0,0,.09,0Z"/><path class="cls-46" d="M143.7,41.25a.14.14,0,0,0,0-.2h0l-.05,0a.14.14,0,0,0-.2,0h0l-.51.5a.13.13,0,0,0,0,.12h.43Z"/><path class="cls-46" d="M143.7,38.42a.14.14,0,0,0,0-.2h0l-.05,0a.14.14,0,0,0-.2,0h0l-.51.5a.14.14,0,0,0,0,.2H143a.14.14,0,0,0,.2,0h0Z"/><path class="cls-47" d="M143.6,38.38a.06.06,0,0,0,0-.08h0a.07.07,0,0,0-.09,0l-.23.22a.06.06,0,0,0,0,.08h0a.06.06,0,0,0,.08,0h0Z"/><path class="cls-46" d="M143.07,39.09a.16.16,0,0,0,.23,0h0l.06-.06a.16.16,0,0,0,0-.23h0l-.33-.33a.17.17,0,0,0-.23,0l-.06.06a.16.16,0,0,0,0,.23h0Z"/><path class="cls-47" d="M143.06,38.91a.07.07,0,0,0,.09,0h0a.07.07,0,0,0,0-.09l-.14-.13a.07.07,0,0,0-.1,0h0a.07.07,0,0,0,0,.09Z"/><path class="cls-46" d="M143.7,39.36a.14.14,0,0,0,0-.2h0l-.05,0a.15.15,0,0,0-.2,0l-.51.51a.14.14,0,0,0,0,.2h0l.05,0a.15.15,0,0,0,.2,0Z"/><path class="cls-47" d="M143.6,39.32a.06.06,0,0,0,0-.08h0a.07.07,0,0,0-.09,0l-.23.22a.06.06,0,0,0,0,.08h0a.06.06,0,0,0,.08,0h0Z"/><path class="cls-46" d="M143.07,40a.16.16,0,0,0,.23,0h0l.06-.06a.16.16,0,0,0,0-.23h0l-.33-.33a.16.16,0,0,0-.23,0h0l-.06.06a.16.16,0,0,0,0,.23h0Z"/><path class="cls-47" d="M143.06,39.86a.07.07,0,0,0,.09,0h0a.07.07,0,0,0,0-.09L143,39.6a.07.07,0,0,0-.1,0h0a.07.07,0,0,0,0,.09Z"/><path class="cls-46" d="M143.7,40.31a.14.14,0,0,0,0-.2h0l-.05,0a.15.15,0,0,0-.2,0l-.51.5a.14.14,0,0,0,0,.2h0l.05.06a.15.15,0,0,0,.2,0Z"/><path class="cls-47" d="M143.6,40.26a.06.06,0,0,0,0-.08h0a.06.06,0,0,0-.08,0h0l-.23.22a.06.06,0,0,0,0,.08h0a.06.06,0,0,0,.08,0h0Z"/><path class="cls-46" d="M143.07,41a.16.16,0,0,0,.23,0h0l.06-.06a.16.16,0,0,0,0-.23h0l-.33-.33a.17.17,0,0,0-.23,0l-.06.06a.16.16,0,0,0,0,.23h0Z"/><path class="cls-47" d="M143.06,40.8a.07.07,0,0,0,.09,0h0a.07.07,0,0,0,0-.09l-.14-.13a.06.06,0,0,0-.08,0l0,0h0a.06.06,0,0,0,0,.08h0Z"/><path class="cls-47" d="M143.6,41.21a.06.06,0,0,0,0-.08h0a.07.07,0,0,0-.09,0l-.23.22a.06.06,0,0,0,0,.08h0a.06.06,0,0,0,.08,0h0Z"/><path class="cls-46" d="M142.54,41.25a.14.14,0,0,0,0-.2h0l-.05,0a.14.14,0,0,0-.2,0h0l-.51.5a.13.13,0,0,0,0,.12h.43Z"/><path class="cls-46" d="M142.54,38.42a.14.14,0,0,0,0-.2h0l-.05,0a.14.14,0,0,0-.2,0h0l-.51.5a.14.14,0,0,0,0,.2h.06a.13.13,0,0,0,.18,0l0,0Z"/><path class="cls-47" d="M142.44,38.38a.06.06,0,0,0,0-.08h0a.07.07,0,0,0-.09,0l-.23.22a.06.06,0,0,0,0,.08h0a.06.06,0,0,0,.08,0h0Z"/><path class="cls-46" d="M141.91,39.09a.17.17,0,0,0,.23,0l.06-.06a.17.17,0,0,0,0-.23l-.33-.33a.16.16,0,0,0-.23,0h0l-.06.06a.15.15,0,0,0,0,.21l0,0Z"/><path class="cls-47" d="M141.9,38.91a.07.07,0,0,0,.09,0h0a.06.06,0,0,0,0-.08h0l-.13-.13a.07.07,0,0,0-.1,0h0a.06.06,0,0,0,0,.08h0Z"/><path class="cls-46" d="M142.54,39.36a.14.14,0,0,0,0-.2h0l-.05,0a.15.15,0,0,0-.2,0l-.51.51a.14.14,0,0,0,0,.2h0l.06,0a.14.14,0,0,0,.2,0h0Z"/><path class="cls-47" d="M142.44,39.32a.06.06,0,0,0,0-.08h0a.07.07,0,0,0-.09,0l-.23.22a.06.06,0,0,0,0,.08h0a.07.07,0,0,0,.09,0Z"/><path class="cls-46" d="M141.91,40a.16.16,0,0,0,.23,0h0l.06-.06a.16.16,0,0,0,0-.23h0l-.33-.33a.16.16,0,0,0-.23,0h0l-.06.06a.15.15,0,0,0,0,.21l0,0Z"/><path class="cls-47" d="M141.9,39.86a.07.07,0,0,0,.09,0h0a.06.06,0,0,0,0-.08h0l-.13-.13a.07.07,0,0,0-.1,0h0a.06.06,0,0,0,0,.08h0Z"/><path class="cls-46" d="M142.54,40.31a.14.14,0,0,0,0-.2h0l-.05,0a.15.15,0,0,0-.2,0l-.51.5a.14.14,0,0,0,0,.2h0l.06.06a.14.14,0,0,0,.2,0h0Z"/><path class="cls-47" d="M142.44,40.26a.06.06,0,0,0,0-.08h0a.06.06,0,0,0-.08,0h0l-.23.22a.07.07,0,0,0,0,.09h0a.06.06,0,0,0,.08,0h0Z"/><path class="cls-46" d="M141.91,41a.16.16,0,0,0,.23,0h0l.06-.06a.16.16,0,0,0,0-.23h0l-.33-.33a.17.17,0,0,0-.23,0l-.06.06a.16.16,0,0,0,0,.23h0Z"/><path class="cls-47" d="M141.9,40.8a.07.07,0,0,0,.09,0h0a.06.06,0,0,0,0-.08h0l-.13-.13a.07.07,0,0,0-.1,0h0a.06.06,0,0,0,0,.08h0Z"/><path class="cls-47" d="M142.44,41.21a.06.06,0,0,0,0-.08h0a.07.07,0,0,0-.09,0l-.23.22a.07.07,0,0,0,0,.09h0a.06.06,0,0,0,.08,0h0Z"/><path class="cls-46" d="M141.37,41.25a.14.14,0,0,0,0-.2h0l-.05,0a.14.14,0,0,0-.2,0h0l-.51.5a.15.15,0,0,0,0,.12H141Z"/><path class="cls-46" d="M141.37,38.42a.14.14,0,0,0,0-.2h0l-.05,0a.14.14,0,0,0-.2,0h0l-.51.5a.14.14,0,0,0,0,.2h.05a.14.14,0,0,0,.2,0h0Z"/><path class="cls-47" d="M141.27,38.38a.06.06,0,0,0,0-.08h0a.07.07,0,0,0-.09,0l-.22.22a.06.06,0,0,0,0,.08h0a.06.06,0,0,0,.08,0h0Z"/><rect class="cls-46" x="140.52" y="38.4" width="0.41" height="0.79" rx="0.16" ry="0.16" transform="translate(13.72 110.76) rotate(-44.95)"/><path class="cls-47" d="M140.74,38.91a.07.07,0,0,0,.1,0h0a.06.06,0,0,0,0-.08h0l-.14-.13a.07.07,0,0,0-.09,0h0a.07.07,0,0,0,0,.09Z"/><path class="cls-46" d="M141.37,39.36a.14.14,0,0,0,0-.2h0l-.05,0a.15.15,0,0,0-.2,0l-.51.51a.14.14,0,0,0,0,.2h0l.05,0a.15.15,0,0,0,.2,0Z"/><path class="cls-47" d="M141.27,39.32a.06.06,0,0,0,0-.08h0a.07.07,0,0,0-.09,0l-.22.22a.06.06,0,0,0,0,.08h0a.07.07,0,0,0,.09,0Z"/><path class="cls-46" d="M140.75,40a.17.17,0,0,0,.23,0h0a.16.16,0,0,0,0-.23h0l-.33-.33a.16.16,0,0,0-.23,0h0l-.06.06a.15.15,0,0,0,0,.21l0,0Z"/><path class="cls-47" d="M140.74,39.86a.07.07,0,0,0,.1,0h0a.06.06,0,0,0,0-.08h0l-.14-.13a.06.06,0,0,0-.08,0h0a.07.07,0,0,0,0,.09Z"/><path class="cls-46" d="M141.37,40.31a.14.14,0,0,0,0-.2h0l-.05,0a.15.15,0,0,0-.2,0l-.51.5a.14.14,0,0,0,0,.2h0l.05.06a.15.15,0,0,0,.2,0Z"/><path class="cls-47" d="M141.27,40.26a.06.06,0,0,0,0-.08h0a.06.06,0,0,0-.08,0h0l-.22.22a.06.06,0,0,0,0,.08h0a.06.06,0,0,0,.08,0h0Z"/><path class="cls-46" d="M140.75,41a.16.16,0,0,0,.23,0h0l.06-.06a.16.16,0,0,0,0-.23h0l-.33-.33a.17.17,0,0,0-.23,0l-.06.06a.16.16,0,0,0,0,.23h0Z"/><path class="cls-47" d="M140.74,40.8a.07.07,0,0,0,.1,0h0a.06.06,0,0,0,0-.08h0l-.14-.13a.06.06,0,0,0-.08,0h0a.06.06,0,0,0,0,.08h0Z"/><path class="cls-47" d="M141.27,41.21a.06.06,0,0,0,0-.08h0a.07.07,0,0,0-.09,0l-.22.22a.06.06,0,0,0,0,.08h0a.06.06,0,0,0,.08,0h0Z"/><path d="M150.05,37.92H113.21a1.74,1.74,0,0,0-1.73,1.73V40a1.73,1.73,0,0,0,1.73,1.73h36.84A1.73,1.73,0,0,0,151.78,40v-.3a1.74,1.74,0,0,0-1.7-1.78Zm1.49,2a1.49,1.49,0,0,1-1.49,1.49H113.21A1.49,1.49,0,0,1,111.72,40v-.3a1.49,1.49,0,0,1,1.48-1.5h36.85a1.5,1.5,0,0,1,1.49,1.5Z"/><path class="cls-48" d="M257.65,117.14H256.3v38.6h1.34a1.27,1.27,0,0,0,1.26-1.26V118.4A1.27,1.27,0,0,0,257.65,117.14Z"/><path class="cls-49" d="M257.65,117.14H256.3v38.6h1.34a1.27,1.27,0,0,0,1.26-1.26V118.4A1.27,1.27,0,0,0,257.65,117.14Z"/><path class="cls-50" d="M256.3,117.19v38.5a1.27,1.27,0,0,0,.92-1.21V118.4A1.26,1.26,0,0,0,256.3,117.19Z"/><path class="cls-51" d="M4.84,117.53a1.27,1.27,0,0,0-1.26,1.26v36a1.27,1.27,0,0,0,1.26,1.26H6.26V117.53Z"/><path class="cls-50" d="M6.26,117.58a1.26,1.26,0,0,0-.92,1.21v36A1.26,1.26,0,0,0,6.26,156Z"/><path class="cls-52" d="M4.84,73a1.27,1.27,0,0,0-1.26,1.26V92.61a1.27,1.27,0,0,0,1.26,1.26H6.26V73Z"/><path class="cls-50" d="M6.26,73a1.26,1.26,0,0,0-.92,1.21v18.4a1.26,1.26,0,0,0,.92,1.21Z"/><path class="cls-53" d="M4.84,165a1.27,1.27,0,0,0-1.26,1.26V202.1a1.27,1.27,0,0,0,1.26,1.26H6.26V165Z"/><path class="cls-50" d="M6.26,165a1.27,1.27,0,0,0-.92,1.21v35.84a1.26,1.26,0,0,0,.92,1.21Z"/><rect class="cls-54" x="253.35" y="46.95" width="3.78" height="7.34"/><rect class="cls-55" x="5.42" y="46.95" width="3.79" height="7.34"/><rect class="cls-56" x="253.35" y="479.59" width="3.78" height="7.34"/><rect class="cls-57" x="5.42" y="479.59" width="3.79" height="7.34"/><rect class="cls-58" x="18.7" y="68.29" width="225.16" height="397.89" rx="1.9" ry="1.9"/></g></svg>